<svg version="1.1" xmlns="http://www.w3.org/2000/svg" xmlns:xlink="http://www.w3.org/1999/xlink" x="0px" y="0px"
	 width="90.71px" height="90.71px" viewBox="0 0 90.71 90.71">
<path fill="#B7B7B7" d="M67.499,51.099H23.212c-6.988,0-12.674-5.686-12.674-12.674v18.631c0,6.988,5.686,12.674,12.674,12.674
	h44.286c6.988,0,12.674-5.686,12.674-12.674V38.425C80.172,45.414,74.487,51.099,67.499,51.099z"/>
<path fill="#C7C7C7" d="M67.499,23.24H23.212c-6.988,0-12.674,5.685-12.674,12.673v2.512c0,6.988,5.686,12.674,12.674,12.674h44.286
	c6.988,0,12.674-5.686,12.674-12.674v-2.512C80.172,28.924,74.487,23.24,67.499,23.24z"/>
<path fill="#777777" d="M67.499,23.24c6.988,0,12.674,5.685,12.674,12.672v21.144c0,6.988-5.686,12.674-12.674,12.674H23.212
	c-6.988,0-12.674-5.686-12.674-12.674V35.912c0-6.988,5.686-12.672,12.674-12.672H67.499 M67.499,21.74H23.212
	c-7.828,0-14.174,6.346-14.174,14.172v21.144c0,7.828,6.346,14.174,14.174,14.174h44.286c7.828,0,14.174-6.346,14.174-14.174V35.912
	C81.672,28.085,75.327,21.74,67.499,21.74L67.499,21.74z"/>
<path fill="#777777" d="M28.455,50.758h-6.076v-3.086c-0.596-0.186-1.173-0.425-1.727-0.718l-2.183,2.184l-4.296-4.295l2.184-2.184
	c-0.292-0.554-0.532-1.131-0.717-1.726h-3.085v-6.075h3.085c0.185-0.595,0.425-1.172,0.717-1.727l-2.184-2.184l4.296-4.295
	l2.184,2.183c0.554-0.292,1.131-0.532,1.727-0.717v-3.085h6.076v3.085c0.595,0.185,1.172,0.425,1.725,0.717l2.184-2.184l4.295,4.296
	l-2.183,2.183c0.292,0.554,0.532,1.131,0.717,1.727h3.086v6.075h-3.086c-0.185,0.595-0.425,1.172-0.717,1.726l2.183,2.184
	l-4.296,4.295l-2.183-2.184c-0.553,0.293-1.13,0.532-1.726,0.718V50.758z M24.379,48.758h2.076v-2.651l0.78-0.177
	c0.913-0.206,1.779-0.566,2.576-1.07l0.676-0.428l1.877,1.878l1.468-1.467l-1.877-1.877l0.427-0.676
	c0.504-0.798,0.865-1.665,1.07-2.576l0.176-0.78h2.653v-2.075h-2.653l-0.176-0.78c-0.206-0.912-0.565-1.779-1.07-2.576l-0.428-0.676
	l1.877-1.877l-1.467-1.467l-1.877,1.877l-0.676-0.428c-0.797-0.504-1.664-0.864-2.575-1.07l-0.78-0.176v-2.652h-2.076v2.652
	l-0.781,0.175c-0.91,0.205-1.777,0.565-2.576,1.07l-0.676,0.427l-1.877-1.877l-1.467,1.467l1.877,1.878l-0.427,0.676
	c-0.505,0.799-0.865,1.666-1.07,2.576l-0.175,0.781h-2.653v2.075h2.653l0.175,0.781c0.205,0.911,0.565,1.777,1.07,2.575l0.428,0.676
	l-1.878,1.877l1.467,1.467l1.877-1.878l0.676,0.428c0.796,0.504,1.664,0.864,2.577,1.07l0.78,0.177V48.758z"/>
<path fill="#C7C7C7" d="M32.381,42.29c0.504-0.798,0.865-1.665,1.07-2.576l0.176-0.78h2.653v-2.075h-2.653l-0.176-0.78
	c-0.206-0.912-0.565-1.779-1.07-2.576l-0.428-0.676l1.877-1.877l-1.467-1.467l-1.877,1.877l-0.676-0.428
	c-0.797-0.504-1.664-0.864-2.575-1.07l-0.78-0.176v-2.652h-2.076v2.652l-0.781,0.175c-0.91,0.205-1.777,0.565-2.576,1.07
	l-0.676,0.427l-1.877-1.877l-1.467,1.467l1.877,1.878l-0.427,0.676c-0.505,0.799-0.865,1.666-1.07,2.576l-0.175,0.781h-2.653v2.075
	h2.653l0.175,0.781c0.205,0.911,0.565,1.777,1.07,2.575l0.428,0.676l-1.878,1.877l1.467,1.467l1.877-1.878l0.676,0.428
	c0.796,0.504,1.664,0.864,2.577,1.07l0.78,0.177v2.651h2.076v-2.651l0.78-0.177c0.913-0.206,1.779-0.566,2.576-1.07l0.676-0.428
	l1.877,1.878l1.468-1.467l-1.877-1.877L32.381,42.29z"/>
</svg>
