<?xml version="1.0" encoding="utf-8"?>
<!-- Generator: Adobe Illustrator 15.0.0, SVG Export Plug-In . SVG Version: 6.00 Build 0)  -->
<!DOCTYPE svg PUBLIC "-//W3C//DTD SVG 1.1//EN" "http://www.w3.org/Graphics/SVG/1.1/DTD/svg11.dtd">
<svg version="1.1" id="_x32_" xmlns="http://www.w3.org/2000/svg" xmlns:xlink="http://www.w3.org/1999/xlink" x="0px" y="0px"
	 width="90.71px" height="90.71px" viewBox="0 0 90.71 90.71" enable-background="new 0 0 90.71 90.71" xml:space="preserve">
<g>
	<path d="M24.873,43.547c-4.125,0-7.474,3.342-7.474,7.466c0,4.126,3.349,7.468,7.474,7.468c4.125,0,7.467-3.343,7.467-7.469
		C32.339,46.889,28.998,43.547,24.873,43.547z"/>
	<circle cx="46.874" cy="51.014" r="7.467"/>
	<path d="M76.405,0H15.183C6.797,0,0,6.797,0,15.183v61.222c0,8.387,6.797,15.183,15.183,15.183h61.222
		c8.387,0,15.183-6.796,15.183-15.183V15.183C91.587,6.797,84.792,0,76.405,0z M46.874,63.467c-4.765,0-8.911-2.684-11-6.615
		c-2.088,3.932-6.233,6.615-11.001,6.615c-6.81,0-12.337-5.464-12.447-12.248h-0.002V30.562c0.031-1.355,1.125-2.441,2.486-2.441
		c1.357-0.002,2.465,1.084,2.49,2.441v10.492c2.155-1.621,4.778-2.495,7.474-2.492c4.769,0,8.913,2.681,11.001,6.616
		c2.088-3.935,6.235-6.616,11-6.616c6.876,0,12.452,5.574,12.452,12.451C59.326,57.892,53.75,63.467,46.874,63.467z M78.648,59.298
		L78.648,59.298c0.858,1.101,0.611,2.627-0.571,3.444c-1.186,0.818-2.846,0.61-3.763-0.456l-5.822-7.135l-5.825,7.135
		c-0.906,1.066-2.578,1.274-3.759,0.456c-1.182-0.817-1.427-2.344-0.567-3.444h-0.001l6.765-8.303l-6.765-8.318h0.001
		c-0.859-1.096-0.614-2.629,0.567-3.443c1.181-0.821,2.853-0.61,3.759,0.455v-0.001l5.825,7.146l5.83-7.146v0.001
		c0.916-1.064,2.578-1.275,3.762-0.455c1.183,0.814,1.429,2.347,0.572,3.443l-6.776,8.318L78.648,59.298z"/>
</g>
</svg>
