<?xml version="1.0" encoding="utf-8"?>
<!-- Generator: Adobe Illustrator 15.0.0, SVG Export Plug-In . SVG Version: 6.00 Build 0)  -->
<!DOCTYPE svg PUBLIC "-//W3C//DTD SVG 1.1//EN" "http://www.w3.org/Graphics/SVG/1.1/DTD/svg11.dtd">
<svg version="1.1" id="_x32_" xmlns="http://www.w3.org/2000/svg" xmlns:xlink="http://www.w3.org/1999/xlink" x="0px" y="0px"
	 width="90.71px" height="90.71px" viewBox="0 0 90.71 90.71" enable-background="new 0 0 90.71 90.71" xml:space="preserve">
<g>
	<path d="M48.652,35.367c-6.573,0-12.28,3.695-15.164,9.12c-2.884-5.425-8.591-9.12-15.163-9.12c-3.863,0-7.428,1.276-10.295,3.43
		V24.34H8.029c-0.04-1.863-1.561-3.363-3.434-3.363s-3.393,1.5-3.433,3.363H1.161v28.476h0.007
		c0.152,9.348,7.773,16.881,17.157,16.881c6.572,0,12.279-3.696,15.163-9.121c2.884,5.426,8.59,9.121,15.163,9.121
		c9.48,0,17.164-7.686,17.164-17.166C65.816,43.051,58.13,35.367,48.652,35.367L48.652,35.367z M18.326,62.828
		c-5.687,0-10.296-4.609-10.296-10.295c0-5.688,4.61-10.297,10.296-10.297s10.295,4.609,10.295,10.297
		C28.621,58.218,24.012,62.828,18.326,62.828L18.326,62.828z M48.652,62.828c-5.687,0-10.296-4.609-10.296-10.297
		c0-5.686,4.609-10.295,10.296-10.295c5.686,0,10.295,4.609,10.295,10.295C58.947,58.218,54.337,62.828,48.652,62.828L48.652,62.828
		z"/>
	<path d="M88.905,64.294l-8.79-11.75l8.79-11.75l-0.001-0.001c1.087-1.514,0.771-3.625-0.726-4.751
		c-1.498-1.124-3.613-0.839-4.765,0.627h-0.001L75.827,46.81l-7.588-10.142l-0.001,0.002c-1.151-1.468-3.266-1.753-4.765-0.628
		c-1.497,1.125-1.813,3.237-0.725,4.75l-0.001,0.001l8.79,11.75l-8.79,11.75l0.001,0.001c-1.088,1.514-0.772,3.624,0.725,4.749
		c1.499,1.125,3.613,0.84,4.765-0.627l0.001,0.002l7.588-10.142l7.586,10.142h0.001c1.151,1.465,3.267,1.75,4.765,0.627
		C89.675,67.921,89.991,65.809,88.905,64.294L88.905,64.294L88.905,64.294z"/>
</g>
</svg>
