<?xml version="1.0" encoding="utf-8"?>
<!-- Generator: Adobe Illustrator 15.1.0, SVG Export Plug-In . SVG Version: 6.00 Build 0)  -->
<!DOCTYPE svg PUBLIC "-//W3C//DTD SVG 1.1//EN" "http://www.w3.org/Graphics/SVG/1.1/DTD/svg11.dtd">
<svg version="1.1" id="_x32_" xmlns="http://www.w3.org/2000/svg" xmlns:xlink="http://www.w3.org/1999/xlink" x="0px" y="0px"
	 width="90.71px" height="90.71px" viewBox="0 0 90.71 90.71" enable-background="new 0 0 90.71 90.71" xml:space="preserve">
<path d="M65.779,44.196h16.183c3.131,0,5.669-2.539,5.669-5.669V19.576c0-3.131-2.538-5.669-5.669-5.669H44.597
	c-3.131,0-5.669,2.538-5.669,5.669v6.976h-7.081c-1.18-6.529-6.88-11.485-13.75-11.485c-7.724,0-13.985,6.261-13.985,13.985
	c0,7.724,6.261,13.985,13.985,13.985c6.869,0,12.569-4.956,13.75-11.485h7.081v6.975c0,3.131,2.538,5.669,5.669,5.669h16.182v4.855
	L48.644,61.186l12.135,12.136v7.855h5v-7.855l9.635-9.635h11.435v-5H75.414l-9.635-9.636V44.196z"/>
</svg>
