<?xml version="1.0" encoding="utf-8"?>
<!-- Generator: Adobe Illustrator 15.0.0, SVG Export Plug-In . SVG Version: 6.00 Build 0)  -->
<!DOCTYPE svg PUBLIC "-//W3C//DTD SVG 1.1//EN" "http://www.w3.org/Graphics/SVG/1.1/DTD/svg11.dtd">
<svg version="1.1" id="_x32_" xmlns="http://www.w3.org/2000/svg" xmlns:xlink="http://www.w3.org/1999/xlink" x="0px" y="0px"
	 width="90.71px" height="90.71px" viewBox="0 0 90.71 90.71" enable-background="new 0 0 90.71 90.71" xml:space="preserve">
<g>
	<path fill="#4B4B4B" d="M78.348,13.873H12.597c-6.57,0-11.898,5.329-11.898,11.899v39.165c0,6.572,5.329,11.9,11.898,11.9h65.751
		c6.57,0,11.899-5.328,11.899-11.9V25.772C90.248,19.202,84.918,13.873,78.348,13.873z M84.651,64.937
		c0,3.479-2.826,6.305-6.303,6.305H12.597c-3.476,0-6.302-2.826-6.302-6.305V39.758h78.355V64.937z M84.651,31.363H6.295v-5.591
		c0-3.477,2.826-6.302,6.302-6.302h65.751c3.477,0,6.303,2.826,6.303,6.302V31.363z"/>
	<rect x="18.888" y="51.185" fill="#4B4B4B" width="11.193" height="11.193"/>
	<rect x="46.172" y="51.185" fill="#4B4B4B" width="27.984" height="4.197"/>
	<rect x="46.172" y="59.58" fill="#4B4B4B" width="22.387" height="4.199"/>
</g>
</svg>
