<?xml version="1.0" encoding="utf-8"?>
<!-- Generator: Adobe Illustrator 15.1.0, SVG Export Plug-In . SVG Version: 6.00 Build 0)  -->
<!DOCTYPE svg PUBLIC "-//W3C//DTD SVG 1.1//EN" "http://www.w3.org/Graphics/SVG/1.1/DTD/svg11.dtd">
<svg version="1.1" id="_x32_" xmlns="http://www.w3.org/2000/svg" xmlns:xlink="http://www.w3.org/1999/xlink" x="0px" y="0px"
	 width="90.71px" height="90.71px" viewBox="0 0 90.71 90.71" enable-background="new 0 0 90.71 90.71" xml:space="preserve">
<path fill="#231815" d="M84.375,46.632c-3.737-3.738-8.592-5.704-13.498-5.891H60.069c6.146,0.021,11.007-1.721,15.169-5.888
	c7.87-7.868,7.87-20.678,0-28.557c-7.875-7.88-20.688-7.88-28.566,0c-3.738,3.738-5.707,8.589-5.889,13.496v10.892
	c0.021-6.148-1.721-11.007-5.886-15.173c-7.873-7.871-20.685-7.871-28.562,0c-7.877,7.877-7.877,20.693,0,28.566
	c3.738,3.741,8.592,5.706,13.499,5.893H30.64c-6.144-0.023-11.005,1.719-15.169,5.889c-7.871,7.869-7.871,20.678,0,28.557
	c7.877,7.877,20.691,7.877,28.566,0c3.74-3.74,5.706-8.59,5.89-13.496V60.031c-0.02,6.148,1.722,11.006,5.89,15.168
	c7.868,7.871,20.679,7.871,28.559,0C92.253,67.324,92.253,54.511,84.375,46.632 M71.288,49.933l0.007,0.004l-0.007,0.012V49.933z
	 M49.979,19.38l0.012,0.005h-0.019L49.979,19.38z M19.423,40.776l-0.007-0.004l0.007-0.011V40.776z M22.341,40.749h-2.899v-0.005
	c-2.416-0.255-4.769-1.302-6.617-3.16c-4.296-4.291-4.296-11.284,0.002-15.582c4.298-4.295,11.281-4.295,15.58,0
	c1.849,1.844,2.899,4.188,3.158,6.605h-0.007v12.118v9.244C31.558,44.868,27.43,40.749,22.341,40.749 M40.732,71.333l-0.011-0.006
	h0.016L40.732,71.333z M40.709,68.41v2.902h-0.004c-0.256,2.414-1.305,4.766-3.157,6.613c-4.294,4.299-11.286,4.299-15.584,0
	c-4.298-4.301-4.298-11.285,0-15.58c1.844-1.848,4.188-2.9,6.605-3.158v0.008h12.116h9.243
	C44.828,59.195,40.709,63.322,40.709,68.41 M49.927,49.97h-9.145v-9.226h9.145V49.97z M50.029,31.517h-9.246
	c5.099,0,9.22-4.128,9.22-9.214v-2.899h0.002c0.258-2.418,1.309-4.769,3.157-6.615c4.296-4.3,11.286-4.3,15.587,0
	c4.298,4.296,4.298,11.281,0,15.58c-1.843,1.849-4.19,2.899-6.608,3.155v-0.006H50.029z M77.884,68.707
	c-4.299,4.299-11.284,4.299-15.583,0c-1.846-1.84-2.896-4.184-3.155-6.604h0.005l-0.017-12.115v-9.244l-0.004-0.002h0.004
	c0,5.103,4.146,9.223,9.235,9.223h2.9v0.006c2.417,0.254,4.768,1.303,6.616,3.154C82.182,57.419,82.182,64.412,77.884,68.707"/>
</svg>
