<?xml version="1.0" encoding="utf-8"?>
<!-- Generator: Adobe Illustrator 15.0.0, SVG Export Plug-In . SVG Version: 6.00 Build 0)  -->
<!DOCTYPE svg PUBLIC "-//W3C//DTD SVG 1.1//EN" "http://www.w3.org/Graphics/SVG/1.1/DTD/svg11.dtd">
<svg version="1.1" id="_x32_" xmlns="http://www.w3.org/2000/svg" xmlns:xlink="http://www.w3.org/1999/xlink" x="0px" y="0px"
	 width="1190.549px" height="841.891px" viewBox="0 0 1190.549 841.891" enable-background="new 0 0 1190.549 841.891"
	 xml:space="preserve">
<path fill="#4B4B4B" d="M595.275,0C362.791,0,174.329,188.462,174.329,420.945s188.462,420.945,420.945,420.945
	s420.945-188.462,420.945-420.945S827.758,0,595.275,0z M839.099,516.662c-0.726,11.94-5.544,30.795-16.89,47.9
	c-14.016,21.13-34.36,34.029-58.835,37.304c-4.179,0.56-8.379,0.844-12.483,0.844c-34.418,0-63.219-19.598-78.627-52.934
	c-5.667,9.106-9.836,15.396-12.804,19.334c-15.729,20.994-38.475,33.542-60.83,33.543c-5.992,0-11.91-0.911-17.591-2.709
	c-11.858-3.757-25.405-12.335-32.944-20.861c-6.417-7.126-9.171-18.212-6.637-26.891c3.487-11.885,14.56-20.177,26.931-20.177
	c2.669,0,5.329,0.383,7.906,1.137c11.706,3.429,19.954,13.61,20.059,24.762c0.037,3.571,1.236,5.655,1.959,6.384
	c0.01-0.007,0.02-0.014,0.03-0.021c4.299-3.141,15.033-17.382,28.418-41.212c5.297-9.403,13.599-23.878,21.683-37.812
	c-4.786-12.911-9.037-23.82-13.914-35.729c-9.697-23.669-23.246-25.602-34.132-27.154c-3.643-0.52-7.082-1.01-10.159-2.354
	c-3.309-1.445-5.783-3.72-7.27-6.564l-4.268,16.546h-46.145c-6.133,34.662-10.435,56.925-13.124,67.926
	c-8.677,35.479-22.767,64.33-41.879,85.752c-25.715,28.824-59.812,43.438-101.343,43.438c-5.477,0-11.16-0.26-16.89-0.772
	l-0.641-0.078c-24.97-3.871-41.263-18.964-42.52-39.388c-0.694-11.238,3.031-22.073,10.49-30.508
	c7.458-8.435,17.756-13.458,28.997-14.146c0.866-0.053,1.747-0.08,2.615-0.08c11.845,0,23.213,5.041,31.191,13.83l0.243,0.269
	c3.971,4.391,7.183,7.941,15.382,11.473c21.226-6.058,31.05-56.025,36.413-83.299c0.512-2.603,1.003-5.103,1.481-7.472
	c1.737-8.597,4.482-23.317,7.661-40.364c0.401-2.15,0.811-4.346,1.228-6.579h-60.147l14.094-54.606H462.2
	c9.364-48.33,15.912-78.009,20.524-93.07c8.259-26.977,23.227-51.84,42.146-70.009c21.427-20.578,47.031-32.031,74.043-33.122
	c1.791-0.071,3.594-0.107,5.365-0.107c20.572,0,40.348,4.874,57.194,14.097c14.036,7.521,24.461,22.966,25.357,37.581
	c1.553,25.154-17.654,46.89-42.816,48.449c-0.996,0.061-2.005,0.092-3.003,0.092c-18.762,0.001-35.311-10.583-41.18-26.339
	c-4.196-11.259-12.11-17.151-17.759-17.151c-2.914,0-5.351,1.509-7.452,4.614c-8.14,12.054-18.626,51.136-26.709,99.559
	c-1.494,8.978-3.595,21.575-5.936,35.404h50.81l-2.89,11.204c1.813-2.318,3.87-4.575,6.132-6.691
	c10.877-10.175,25.097-15.779,40.04-15.779c7.507,0,15.299,1.371,23.162,4.075c17.408,5.969,28.426,22.13,36.437,40.2
	c2.344-3.497,4.383-6.382,6.143-8.694c15.81-20.749,38.495-33.132,60.687-33.132c6.128,0,12.171,0.952,17.961,2.83
	c11.857,3.839,25.355,12.503,32.82,21.068c6.364,7.178,9.04,18.277,6.451,26.926c-3.551,11.787-14.607,20.008-26.894,20.008
	c-2.727,0-5.44-0.399-8.068-1.187c-11.687-3.535-19.858-13.779-19.897-24.917c-0.011-3.632-0.514-5.489-0.839-6.312
	c-0.393,0.056-1.005,0.188-1.803,0.5c-4.712,3.998-15.122,17.9-28.004,40.459c-3.946,6.923-9.755,16.931-16.523,28.471
	c0.124,0.387,0.249,0.772,0.374,1.158l1.035,3.195c12.268,37.879,21.498,61.024,46.197,63.043c1.171,0.096,2.388,0.145,3.613,0.145
	c11.962,0,24.05-4.477,29.396-10.886c2.501-2.999,3.348-6.136,2.666-9.872c-1.01-5.61,0.418-11.06,4.019-15.366
	c3.974-4.753,10.252-7.591,16.795-7.591c10.074,0,15.979,8.433,17.203,16.268l0.167,1.069L839.099,516.662z"/>
</svg>
