<?xml version="1.0" encoding="utf-8"?>
<!-- Generator: Adobe Illustrator 15.0.0, SVG Export Plug-In . SVG Version: 6.00 Build 0)  -->
<!DOCTYPE svg PUBLIC "-//W3C//DTD SVG 1.1//EN" "http://www.w3.org/Graphics/SVG/1.1/DTD/svg11.dtd">
<svg version="1.1" id="_x32_" xmlns="http://www.w3.org/2000/svg" xmlns:xlink="http://www.w3.org/1999/xlink" x="0px" y="0px"
	 width="512px" height="512px" viewBox="0 0 512 512" enable-background="new 0 0 512 512" xml:space="preserve">
<path fill="#4B4B4B" d="M256.001,2.333C115.903,2.333,2.333,115.902,2.333,256c0,140.097,113.569,253.667,253.667,253.667
	c140.098,0,253.667-113.569,253.667-253.667C509.667,115.902,396.098,2.333,256.001,2.333z M402.933,313.681
	c-0.438,7.195-3.342,18.557-10.179,28.865c-8.445,12.732-20.705,20.506-35.455,22.479c-2.519,0.337-5.05,0.509-7.522,0.509
	c-20.74,0-38.097-11.811-47.382-31.898c-3.414,5.487-5.927,9.277-7.716,11.65c-9.479,12.651-23.185,20.213-36.656,20.214
	c-3.611,0-7.177-0.549-10.602-1.633c-7.145-2.264-15.309-7.434-19.852-12.571c-3.867-4.294-5.526-10.974-4-16.205
	c2.102-7.162,8.774-12.158,16.229-12.158c1.609,0,3.211,0.23,4.765,0.686c7.053,2.065,12.025,8.2,12.087,14.922
	c0.022,2.151,0.745,3.407,1.181,3.847c0.006-0.005,0.012-0.009,0.019-0.013c2.591-1.893,9.058-10.476,17.125-24.835
	c3.191-5.667,8.194-14.389,13.065-22.785c-2.884-7.781-5.445-14.354-8.385-21.531c-5.843-14.264-14.008-15.429-20.567-16.363
	c-2.195-0.314-4.269-0.609-6.123-1.419c-1.994-0.87-3.485-2.241-4.38-3.955l-2.572,9.97h-27.808
	c-3.696,20.889-6.288,34.304-7.909,40.934c-5.229,21.38-13.72,38.767-25.236,51.675c-15.496,17.37-36.043,26.177-61.07,26.177
	c-3.301,0-6.726-0.157-10.179-0.465l-0.386-0.048c-15.047-2.332-24.866-11.428-25.624-23.735
	c-0.417-6.772,1.826-13.302,6.321-18.384c4.495-5.084,10.7-8.111,17.474-8.525c0.521-0.031,1.053-0.048,1.576-0.048
	c7.138,0,13.988,3.037,18.796,8.334l0.146,0.162c2.394,2.646,4.329,4.784,9.269,6.913c12.792-3.649,18.711-33.761,21.944-50.197
	c0.308-1.568,0.604-3.074,0.893-4.502c1.046-5.181,2.701-14.051,4.617-24.323c0.241-1.296,0.488-2.619,0.74-3.966h-36.245
	l8.492-32.906h33.983c5.643-29.124,9.588-47.009,12.368-56.084c4.977-16.258,13.997-31.24,25.397-42.189
	c12.912-12.401,28.341-19.302,44.619-19.96c1.08-0.042,2.166-0.064,3.232-0.064c12.398,0,24.314,2.937,34.467,8.496
	c8.458,4.532,14.741,13.839,15.28,22.646c0.937,15.158-10.638,28.256-25.801,29.196c-0.601,0.037-1.209,0.056-1.811,0.056
	c-11.306,0-21.279-6.378-24.816-15.873c-2.527-6.785-7.296-10.335-10.701-10.335c-1.756,0-3.225,0.909-4.491,2.78
	c-4.905,7.264-11.224,30.815-16.095,59.996c-0.9,5.409-2.166,13.001-3.577,21.334h30.619l-1.741,6.752
	c1.092-1.396,2.332-2.757,3.695-4.032c6.554-6.131,15.123-9.508,24.129-9.508c4.522,0,9.219,0.827,13.957,2.456
	c10.491,3.597,17.13,13.336,21.957,24.225c1.413-2.107,2.643-3.846,3.702-5.239c9.527-12.503,23.198-19.965,36.571-19.965
	c3.692,0,7.334,0.574,10.823,1.705c7.146,2.313,15.279,7.535,19.777,12.695c3.835,4.326,5.448,11.015,3.889,16.227
	c-2.14,7.102-8.804,12.056-16.208,12.056c-1.643,0-3.277-0.239-4.861-0.715c-7.043-2.131-11.967-8.303-11.99-15.016
	c-0.007-2.188-0.31-3.307-0.506-3.804c-0.236,0.034-0.605,0.114-1.085,0.302c-2.841,2.409-9.113,10.787-16.876,24.381
	c-2.379,4.172-5.879,10.202-9.958,17.156c0.075,0.233,0.15,0.467,0.226,0.699l0.624,1.926c7.393,22.825,12.955,36.772,27.839,37.989
	c0.705,0.058,1.439,0.087,2.177,0.087c7.21,0,14.493-2.697,17.714-6.559c1.509-1.809,2.018-3.698,1.607-5.949
	c-0.608-3.382,0.252-6.666,2.422-9.26c2.395-2.865,6.179-4.575,10.121-4.575c6.07,0,9.629,5.082,10.366,9.804l0.101,0.644
	L402.933,313.681z"/>
</svg>
