<?xml version="1.0" encoding="utf-8"?>
<!-- Generator: Adobe Illustrator 15.0.0, SVG Export Plug-In . SVG Version: 6.00 Build 0)  -->
<!DOCTYPE svg PUBLIC "-//W3C//DTD SVG 1.1//EN" "http://www.w3.org/Graphics/SVG/1.1/DTD/svg11.dtd">
<svg version="1.1" id="_x32_" xmlns="http://www.w3.org/2000/svg" xmlns:xlink="http://www.w3.org/1999/xlink" x="0px" y="0px"
	 width="90.71px" height="90.71px" viewBox="0 0 90.71 90.71" enable-background="new 0 0 90.71 90.71" xml:space="preserve">
<path fill="#4B4B4B" d="M3.778,0v68.218h56.499L87.113,90.71V0H3.778z M45.545,14.518c4.284,0,7.757,3.473,7.757,7.757
	s-3.474,7.757-7.757,7.757c-4.284,0-7.757-3.473-7.757-7.757S41.261,14.518,45.545,14.518z M26.232,49.313H14.479
	c0-3.845,5.218-6.961,11.654-6.961c0.613,0,1.211,0.037,1.798,0.091c-1.142,1.7-1.799,3.589-1.799,5.589
	C26.133,48.464,26.172,48.891,26.232,49.313z M24.667,38.186c-3.186,0-5.768-2.583-5.768-5.768s2.583-5.768,5.768-5.768
	s5.768,2.583,5.768,5.768S27.853,38.186,24.667,38.186z M60.615,49.313H29.476c-0.014-0.197-0.041-0.392-0.041-0.591
	c0-6.372,6.989-11.536,15.609-11.536c8.621,0,15.61,5.165,15.61,11.536C60.655,48.921,60.628,49.116,60.615,49.313z M60.461,32.418
	c0-3.186,2.582-5.768,5.769-5.768c3.186,0,5.768,2.583,5.768,5.768s-2.582,5.768-5.768,5.768
	C63.043,38.186,60.461,35.604,60.461,32.418z M64.062,49.313c0.06-0.422,0.099-0.849,0.099-1.281c0-2-0.656-3.889-1.799-5.589
	c0.588-0.055,1.186-0.091,1.799-0.091c6.437,0,11.654,3.117,11.654,6.961H64.062z"/>
</svg>
