<?xml version="1.0" encoding="utf-8"?>
<!-- Generator: Adobe Illustrator 15.0.0, SVG Export Plug-In . SVG Version: 6.00 Build 0)  -->
<!DOCTYPE svg PUBLIC "-//W3C//DTD SVG 1.1//EN" "http://www.w3.org/Graphics/SVG/1.1/DTD/svg11.dtd">
<svg version="1.1" id="_x32_" xmlns="http://www.w3.org/2000/svg" xmlns:xlink="http://www.w3.org/1999/xlink" x="0px" y="0px"
	 width="90.71px" height="90.71px" viewBox="0 0 90.71 90.71" enable-background="new 0 0 90.71 90.71" xml:space="preserve">
<g>
	<path fill="#4B4B4B" d="M83.142,13.935c1.088,0,2.038,0.104,2.875,0.277V8.599c0-3.857-3.129-6.985-6.985-6.985H11.678
		c-3.858,0-6.985,3.128-6.985,6.985v5.6c0.815-0.166,1.74-0.264,2.792-0.264H83.142z M67.875,5.036c2.079,0,3.764,1.686,3.764,3.766
		c0,2.079-1.685,3.765-3.764,3.765s-3.766-1.686-3.766-3.765C64.11,6.722,65.796,5.036,67.875,5.036z M23.834,5.036
		c2.08,0,3.764,1.686,3.764,3.766c0,2.079-1.685,3.765-3.764,3.765c-2.079,0-3.765-1.686-3.765-3.765
		C20.069,6.722,21.755,5.036,23.834,5.036z"/>
	<path fill="#4B4B4B" d="M86.361,54.597H66.164v17.798h-5.065V54.597H43.451c1.618,1.861,2.586,4.182,2.586,6.708
		c0,6.124-5.639,11.09-12.595,11.09c-6.807,0-12.338-4.759-12.573-10.699h4.825c0.291,3.757,3.567,6.729,7.61,6.729
		c4.235,0,7.667-3.249,7.667-7.257c0-2.92-1.833-5.42-4.46-6.57L4.403,54.596c-0.846,5.9-3.275,22.808-3.95,26.972
		c-0.821,5.064,2.054,7.529,7.119,7.529h75.657c5.002,0,7.842-2.465,7.03-7.529C89.592,77.404,87.195,60.5,86.361,54.597z"/>
	<path fill="#4B4B4B" d="M4.644,52.542h24.281v-2.326h4.313c3.856,0,6.982-3.004,6.982-6.708c0-3.705-3.126-6.708-6.982-6.708
		c-3.749,0-6.782,2.845-6.951,6.406h-4.891c0-5.913,5.302-10.707,11.843-10.707c6.541,0,11.842,4.794,11.842,10.707
		c0,3.593-1.964,6.764-4.967,8.706c0.349,0.192,0.676,0.411,1,0.632h19.984V38.989l-9.31,3.696v-5.75l14.375-4.437v20.045h19.854
		c0,0,3.421-23.958,4.242-29.024s-2.054-7.53-7.117-7.53H7.484c-5.003,0-7.843,2.464-7.031,7.53
		C1.264,28.585,4.644,52.542,4.644,52.542z"/>
</g>
</svg>
