<?xml version="1.0" encoding="utf-8"?>
<!-- Generator: Adobe Illustrator 15.0.0, SVG Export Plug-In . SVG Version: 6.00 Build 0)  -->
<!DOCTYPE svg PUBLIC "-//W3C//DTD SVG 1.1//EN" "http://www.w3.org/Graphics/SVG/1.1/DTD/svg11.dtd">
<svg version="1.1" id="_x32_" xmlns="http://www.w3.org/2000/svg" xmlns:xlink="http://www.w3.org/1999/xlink" x="0px" y="0px"
	 width="90.71px" height="90.71px" viewBox="0 0 90.71 90.71" enable-background="new 0 0 90.71 90.71" xml:space="preserve">
<g>
	<path d="M73.337,31.153C70.468,18.66,59.304,9.334,45.941,9.334c-6.372,0-12.226,2.145-16.941,5.717
		c-2.109-0.423-4.289-0.648-6.522-0.648c-8.52,0-16.285,3.232-22.137,8.536L4.3,26.771c4.849-4.282,11.201-6.9,18.178-6.9
		c7.074,0,13.502,2.693,18.376,7.08l-4.229,4.229c-3.785-3.309-8.725-5.329-14.148-5.329c-11.889,0-21.527,9.638-21.527,21.527
		s9.638,22.895,21.527,22.895h2.401V53.503c-1.439-0.129-2.572-1.322-2.572-2.795c0-1.557,1.262-2.818,2.819-2.818H64.25
		c1.557,0,2.819,1.262,2.819,2.818c0,0.871-0.404,1.641-1.025,2.158v17.404h4.784c10.852,0,19.647-8.797,19.647-19.648
		C90.476,40.624,83.001,32.387,73.337,31.153z M28.865,38.939c-1.777-1.347-3.985-2.156-6.387-2.156
		c-2.357,0-4.526,0.78-6.287,2.082l-3.853-3.961c2.767-2.252,6.294-3.606,10.14-3.606c3.918,0,7.506,1.404,10.295,3.733
		L28.865,38.939z"/>
	<path d="M26.93,79.439c0,1.07,0.868,1.938,1.938,1.938h33.191c1.069,0,1.937-0.867,1.937-1.938V50.281H26.93V79.439z
		 M33.845,57.373h23.235v3.074H33.845V57.373z M33.845,63.822h23.235v3.074H33.845V63.822z M33.845,70.271h23.235v3.074H33.845
		V70.271z"/>
</g>
</svg>
