<?xml version="1.0" encoding="utf-8"?>
<!-- Generator: Adobe Illustrator 15.1.0, SVG Export Plug-In . SVG Version: 6.00 Build 0)  -->
<!DOCTYPE svg PUBLIC "-//W3C//DTD SVG 1.1//EN" "http://www.w3.org/Graphics/SVG/1.1/DTD/svg11.dtd">
<svg version="1.1" id="_x32_" xmlns="http://www.w3.org/2000/svg" xmlns:xlink="http://www.w3.org/1999/xlink" x="0px" y="0px"
	 width="90.71px" height="90.71px" viewBox="0 0 90.71 90.71" enable-background="new 0 0 90.71 90.71" xml:space="preserve">
<g>
	<path fill="#00897B" d="M44.354,0.741c-21.343,0-38.667,17.313-38.667,38.667c0,20.229,18.448,36.632,38.667,36.632v14.245
		C67.839,78.37,83.021,59.194,83.021,39.408C83.021,18.055,65.698,0.741,44.354,0.741z M66.17,42.908
		c-0.381,1.435-0.94,2.691-1.684,3.766c-0.743,1.078-1.674,1.928-2.793,2.549c-1.125,0.621-2.407,0.936-3.852,0.936
		c-1.445,0-2.737-0.361-3.877-1.084c-1.14-0.722-2.035-1.75-2.682-3.082c-0.875,1.332-1.979,2.36-3.307,3.082
		c-1.333,0.723-2.87,1.084-4.62,1.084c-1.562,0-3.001-0.279-4.335-0.85c-1.333-0.564-2.498-1.358-3.505-2.376
		c-1.007-1.018-1.796-2.233-2.366-3.647c-0.57-1.414-0.854-2.971-0.854-4.666s0.295-3.251,0.885-4.666
		c0.59-1.415,1.378-2.63,2.366-3.647c0.987-1.018,2.137-1.812,3.45-2.376c1.313-0.564,2.691-0.849,4.136-0.849
		c1.445,0,2.737,0.285,3.876,0.844c1.14,0.565,2.091,1.318,2.85,2.259h0.341v-2.315h4.848v14.276c0,0.906,0.26,1.74,0.769,2.513
		c0.515,0.773,1.303,1.155,2.366,1.155c0.723,0,1.328-0.224,1.826-0.677c0.494-0.453,0.886-1.042,1.17-1.78
		c0.285-0.732,0.483-1.552,0.601-2.458c0.112-0.906,0.173-1.806,0.173-2.712c0-2.294-0.447-4.477-1.338-6.547
		c-0.896-2.071-2.121-3.887-3.679-5.449c-1.562-1.562-3.403-2.793-5.53-3.699c-2.132-0.906-4.446-1.358-6.959-1.358
		c-2.432,0-4.716,0.433-6.843,1.302c-2.132,0.87-3.974,2.066-5.53,3.592c-1.562,1.526-2.793,3.348-3.709,5.459
		c-0.911,2.111-1.369,4.411-1.369,6.899c0,2.488,0.463,4.787,1.399,6.898c0.931,2.112,2.198,3.933,3.795,5.459
		s3.449,2.723,5.561,3.593c2.111,0.87,4.345,1.302,6.7,1.302c2.773,0,5.246-0.59,7.413-1.771l1.771,4.457
		c-2.777,1.292-5.836,1.943-9.183,1.943c-3.23,0-6.227-0.574-8.985-1.729c-2.757-1.155-5.134-2.722-7.128-4.701
		c-1.994-1.984-3.556-4.299-4.676-6.944c-1.134-2.646-1.694-5.48-1.694-8.502c0-2.986,0.56-5.81,1.684-8.471
		c1.119-2.661,2.681-4.986,4.676-6.97c1.994-1.984,4.365-3.551,7.102-4.707c2.737-1.155,5.739-1.729,9.01-1.729
		c3.23,0,6.218,0.575,8.955,1.729c2.736,1.15,5.092,2.717,7.071,4.701s3.516,4.289,4.619,6.909c1.104,2.625,1.654,5.429,1.654,8.41
		C66.741,39.926,66.547,41.474,66.17,42.908z"/>
	<path fill="#00897B" d="M48.175,33.791c-0.59-0.56-1.267-0.992-2.024-1.292c-0.764-0.3-1.563-0.448-2.396-0.448
		c-0.834,0-1.633,0.148-2.396,0.448c-0.763,0.3-1.435,0.733-2.025,1.292s-1.053,1.256-1.399,2.076
		c-0.341,0.824-0.514,1.74-0.514,2.752c0,1.013,0.173,1.928,0.514,2.752s0.809,1.516,1.399,2.076c0.59,0.56,1.262,0.992,2.025,1.292
		c0.763,0.3,1.562,0.448,2.396,0.448c0.834,0,1.633-0.148,2.396-0.448c0.758-0.3,1.435-0.728,2.024-1.292
		c0.591-0.56,1.054-1.247,1.399-2.051c0.341-0.804,0.514-1.729,0.514-2.778s-0.173-1.974-0.514-2.778S48.766,34.356,48.175,33.791z"
		/>
</g>
</svg>
