<?xml version="1.0" encoding="utf-8"?>
<!-- Generator: Adobe Illustrator 15.0.0, SVG Export Plug-In . SVG Version: 6.00 Build 0)  -->
<!DOCTYPE svg PUBLIC "-//W3C//DTD SVG 1.1//EN" "http://www.w3.org/Graphics/SVG/1.1/DTD/svg11.dtd">
<svg version="1.1" id="_x32_" xmlns="http://www.w3.org/2000/svg" xmlns:xlink="http://www.w3.org/1999/xlink" x="0px" y="0px"
	 width="90.71px" height="90.71px" viewBox="0 0 90.71 90.71" enable-background="new 0 0 90.71 90.71" xml:space="preserve">
<path d="M90.105,27.061c0,0-11.289-0.952-19.995,0.816c-1.037,0.21-1.982,0.415-2.854,0.612c0.171-0.744,0.271-1.516,0.271-2.313
	c0-5.671-4.598-10.269-10.27-10.269c-3.253,0-6.146,1.516-8.028,3.876c-2.163-4.801-7.13-8.161-12.918-8.161
	c-7.774,0-14.078,6.059-14.078,13.534c0,0.464,0.025,0.923,0.072,1.375c-1.932-0.875-4.07-1.375-6.329-1.375
	c-8.488,0-15.37,6.882-15.37,15.37c0,5.839,3.256,10.917,8.052,13.519c-0.627,1.889-0.979,3.901-0.979,6
	c0,10.517,8.526,19.042,19.042,19.042c6.409,0,12.065-3.176,15.517-8.029c1.629,2.384,4.367,3.949,7.471,3.949
	c4.995,0,9.045-4.05,9.045-9.046c0-0.498-0.051-0.982-0.128-1.459c0.815,0.146,1.651,0.235,2.509,0.235
	c7.813,0,14.146-6.333,14.146-14.146c0-3.559-1.324-6.801-3.493-9.287C79.198,32.934,90.105,27.061,90.105,27.061z"/>
</svg>
