<?xml version="1.0" encoding="utf-8"?>
<!-- Generator: Adobe Illustrator 15.0.0, SVG Export Plug-In . SVG Version: 6.00 Build 0)  -->
<!DOCTYPE svg PUBLIC "-//W3C//DTD SVG 1.1//EN" "http://www.w3.org/Graphics/SVG/1.1/DTD/svg11.dtd">
<svg version="1.1" id="_x32_" xmlns="http://www.w3.org/2000/svg" xmlns:xlink="http://www.w3.org/1999/xlink" x="0px" y="0px"
	 width="90.71px" height="90.71px" viewBox="0 0 90.71 90.71" enable-background="new 0 0 90.71 90.71" xml:space="preserve">
<g>
	<path d="M53.448,10.698c1.712-0.303,3.855-1.309,4.695,0c0.84,1.308,0.167,6.441,0,8.857c-0.165,2.416-0.669,7.046-0.972,8.254
		l4.731,1.207c0,0,1.21-3.724,2.919-12.984c1.711-9.261,0-13.588-3.02-14.696c-3.02-1.107-9.261,2.918-10.568,5.637
		C49.924,9.691,51.737,11,53.448,10.698z"/>
	<path d="M39.758,29.017l4.631-1.006c0,0,0.302-4.832,0-12.928c-0.303-8.096-2.718-14.551-6.141-13.934
		c-3.422,0.618-3.421,8.845-2.214,14.582C37.243,21.468,39.758,29.017,39.758,29.017z"/>
	<path d="M62.506,61.428c0,0-3.521,1.711-10.87,1.711c-3.148,0-7.55-1.006-11.724-2.818c-1.747-0.758-5.032-3.586-6.294-3.521
		c-2.213,0.111-1.768,3.85-1.41,5.484c0.806,3.674,4.833,5.484,8.959,6.795c4.127,1.309,8.556,1.207,10.669,1.207
		c2.114,0,4.027-0.301,4.831-0.502c0.806-0.201,2.819,1.912,0.303,2.213c-2.517,0.303-5.987,0.404-9.737,0
		c-3.751-0.402-7.777-0.703-10.595-2.414c0,0-1.639,6.039-1.913,11.172c-0.274,5.135,0.604,9.461,3.121,9.461
		c2.516,0,2.818-2.111,5.334-4.125s5.939-2.113,7.247-2.113c1.309,0,6.744,0.602,8.657,2.012c1.912,1.408,3.624,4.227,5.133,4.227
		c1.511,0,3.723-3.521,2.617-10.77C65.729,72.198,64.319,66.36,62.506,61.428z"/>
	<path d="M22.446,59.366c0,2.971,1.409,2.566,1.409,2.566v-5.135C23.855,56.797,22.446,56.395,22.446,59.366z"/>
	<path d="M29.88,38.637v-0.662c0-0.713-0.385-1.377-1.005-1.73c-0.609-0.35-1.396-0.344-2.001,0.014l-8.359,4.932
		c-0.947,0.559-1.263,1.784-0.704,2.73c0.536,0.908,1.812,1.245,2.729,0.704l5.354-3.16v34.86c0,1.1,0.894,1.994,1.993,1.994
		c1.099,0,1.993-0.895,1.993-1.994V51.807V38.637z"/>
	<path d="M50.836,29.017c-8.059,0-15.134,2.939-19.229,7.376c0.21,0.493,0.326,1.03,0.326,1.583v16.428
		c4.139,4.242,11.057,7.025,18.903,7.025c12.676,0,22.951-7.256,22.951-16.206S63.512,29.017,50.836,29.017z M51.24,47.739
		c1.223,0,2.214,0.768,2.214,1.711c0,0.945-0.991,1.713-2.214,1.713s-2.215-0.768-2.215-1.713
		C49.025,48.506,50.017,47.739,51.24,47.739z M38.859,46.532v-8.557h-2.215v-2.013h5.034v10.57H38.859z M51.24,59.436
		c-4.095,0-7.065-2.549-7.065-6.061c0-0.566,0.459-1.027,1.026-1.027c0.565,0,1.026,0.461,1.026,1.027
		c0,2.754,2.599,4.008,5.013,4.008c2.415,0,5.014-1.254,5.014-4.008c0-0.566,0.458-1.027,1.025-1.027
		c0.568,0,1.026,0.461,1.026,1.027C58.305,56.887,55.334,59.436,51.24,59.436z M63.319,46.532H60.5v-8.557h-2.215v-2.013h5.033
		V46.532z"/>
</g>
</svg>
