<?xml version="1.0" encoding="utf-8"?>
<!-- Generator: Adobe Illustrator 15.1.0, SVG Export Plug-In . SVG Version: 6.00 Build 0)  -->
<!DOCTYPE svg PUBLIC "-//W3C//DTD SVG 1.1//EN" "http://www.w3.org/Graphics/SVG/1.1/DTD/svg11.dtd">
<svg version="1.1" id="_x32_" xmlns="http://www.w3.org/2000/svg" xmlns:xlink="http://www.w3.org/1999/xlink" x="0px" y="0px"
	 width="90.71px" height="90.71px" viewBox="0 0 90.71 90.71" enable-background="new 0 0 90.71 90.71" xml:space="preserve">
<g>
	<path d="M69.591,45.522c-0.063,1.316-0.152,2.562-0.266,3.745c0.055,0.006,0.105,0.017,0.162,0.017
		c1.703,0,3.195-2.642,3.195-5.651c0-1.493-0.371-2.883-0.951-3.916C71.244,41.727,70.531,43.668,69.591,45.522z"/>
	<path d="M56.037,69.154c-2.709,0.915-6.279,1.395-10.683,1.425l0.576,0.564c1.057,1.033,2.756,1.651,4.546,1.651
		C53.392,72.794,55.865,71.148,56.037,69.154z"/>
	<path d="M44.359,71.142l0.572-0.558c-0.017,0-0.033,0-0.051,0c-4.329,0-7.875-0.419-10.613-1.251
		c0.299,1.913,2.717,3.461,5.547,3.461C41.602,72.794,43.301,72.176,44.359,71.142z"/>
	<path d="M40.679,36.019c-0.88-0.693-2.375-0.981-3.784-1.103v0.004h-4.461c-2.727,0.281-6.378,1.347-6.434,5.049l0.188,1.591
		c0.795,3.282,4.036,6.522,8.063,6.522c4.706,0,8.254-2.729,8.254-6.347C42.506,38.898,41.89,36.975,40.679,36.019z"/>
	<path d="M60.675,66.355c-0.082,0.094-0.17,0.188-0.264,0.283c-0.59,0.592-1.318,1.115-2.174,1.576
		c0.035,0.236,0.061,0.477,0.061,0.721c0,3.365-3.512,6.104-7.823,6.104c-2.007,0-3.896-0.585-5.331-1.63
		c-1.436,1.045-3.325,1.63-5.33,1.63c-4.314,0-7.823-2.738-7.823-6.104c0-0.159,0.011-0.314,0.027-0.469
		c-0.923-0.445-1.707-0.957-2.352-1.539c-2.54,5.038-4.134,11.335-4.522,16.405c-0.161,2.093,0.28,3.716,1.307,4.826
		c1.603,1.729,4.178,1.749,4.287,1.749h14.573h14.608c0.109,0,2.684-0.02,4.287-1.749c1.027-1.11,1.467-2.733,1.307-4.826
		C65.111,78.071,63.4,71.486,60.675,66.355z M45.571,85.943c-0.738,0-1.338-0.6-1.338-1.338s0.6-1.338,1.338-1.338
		c0.739,0,1.338,0.6,1.338,1.338S46.31,85.943,45.571,85.943z M45.571,79.771c-0.738,0-1.338-0.599-1.338-1.338
		s0.6-1.339,1.338-1.339c0.739,0,1.338,0.6,1.338,1.339S46.31,79.771,45.571,79.771z"/>
	<path d="M20.439,49.261c-0.189-1.931-0.296-3.89-0.345-5.784c-0.565-1.392-1.008-2.83-1.334-4.298
		c-0.769,1.053-1.284,2.687-1.284,4.453C17.477,46.503,18.836,49.034,20.439,49.261z"/>
	<path d="M53.826,34.92c-1.393,0.124-2.861,0.414-3.73,1.099c-1.213,0.956-1.826,2.879-1.826,5.718c0,3.618,3.549,6.347,8.254,6.347
		c3.84,0,6.963-2.947,7.934-6.067l0.305-2.385c-0.266-3.43-3.779-4.44-6.42-4.711H53.826z"/>
	<path d="M74.302,30.096l-1.473-0.735l1.223-1.103c1.354-1.22,2.131-2.955,2.131-4.765c0-3.54-2.881-6.419-6.42-6.419
		c-0.088,0.006-0.137,0.009-0.186,0.01l-1.641,0.038l0.561-1.542c0.26-0.714,0.391-1.449,0.391-2.185c0-3.54-2.881-6.42-6.42-6.42
		c-1.1,0-2.188,0.287-3.148,0.829l-1.578,0.891l-0.094-1.81c-0.178-3.41-2.99-6.082-6.402-6.082c-1.957,0-3.785,0.881-5.014,2.419
		l-0.877,1.097l-0.876-1.097c-1.228-1.538-3.056-2.419-5.014-2.419c-3.412,0-6.224,2.671-6.402,6.082l-0.094,1.81l-1.578-0.891
		c-0.962-0.542-2.05-0.829-3.148-0.829c-3.541,0-6.42,2.88-6.42,6.42c0,0.736,0.132,1.471,0.391,2.185l0.56,1.542l-1.641-0.093
		c-0.049-0.001-0.098-0.063-0.146-0.063c-0.002,0-0.004,0-0.005,0c-3.576,0-6.453,2.934-6.453,6.473
		c0,1.808,0.776,3.573,2.129,4.792l1.224,1.117l-1.474,0.742c-2.198,1.097-3.563,3.299-3.563,5.745c0,2.143,1.06,4.038,2.68,5.204
		c0.469-2.012,1.473-3.629,2.778-4.524c-0.037-0.312-0.071-0.624-0.098-0.937l2.236-0.192c0.22,2.574,0.828,5.072,1.807,7.426
		l0.081,0.195l0.004,0.209c0.054,2.319,0.187,4.448,0.39,6.378l0,0c0.052,0.486,0.109,0.957,0.169,1.419
		c0.005,0.039,0.01,0.079,0.016,0.118c0.06,0.45,0.125,0.888,0.193,1.313c0.008,0.046,0.015,0.089,0.023,0.135
		c0.141,0.85,0.299,1.647,0.474,2.394c0.011,0.049,0.023,0.099,0.035,0.146c0.086,0.363,0.178,0.717,0.273,1.054
		c0.008,0.027,0.016,0.053,0.023,0.08c0.093,0.325,0.189,0.638,0.29,0.938c0.009,0.027,0.019,0.057,0.027,0.083
		c0.103,0.304,0.21,0.593,0.321,0.871c0.018,0.045,0.036,0.09,0.054,0.135c0.113,0.276,0.229,0.543,0.349,0.792
		c0.001,0.003,0.002,0.005,0.003,0.007c0.119,0.245,0.243,0.475,0.369,0.693c0.021,0.037,0.042,0.074,0.063,0.112
		c0.125,0.21,0.253,0.407,0.385,0.594c0.022,0.032,0.045,0.061,0.067,0.092c0.128,0.173,0.258,0.337,0.392,0.486
		c0.011,0.014,0.022,0.027,0.034,0.04c0.14,0.155,0.285,0.293,0.432,0.421c0.03,0.026,0.061,0.053,0.091,0.078
		c0.147,0.121,0.296,0.232,0.45,0.327c0.02,0.012,0.04,0.022,0.06,0.034c0.143,0.085,0.289,0.157,0.438,0.22
		c0.028,0.012,0.055,0.024,0.084,0.036c0.158,0.062,0.321,0.107,0.486,0.143c0.035,0.009,0.07,0.013,0.105,0.021
		c0.172,0.03,0.345,0.053,0.522,0.054l1.119,0.014l-0.009,1.117c0.001,0.012,0.466,4.782,14.82,4.782
		c0.392,0,0.767-0.005,1.135-0.012c0.113-0.002,0.225-0.005,0.334-0.008c0.285-0.006,0.563-0.016,0.834-0.026
		c0.227-0.01,0.449-0.021,0.666-0.031c0.115-0.008,0.229-0.014,0.342-0.02c5.352-0.33,8.191-1.444,9.68-2.426
		c0.004-0.002,0.008-0.005,0.012-0.007c0.059-0.039,0.113-0.076,0.168-0.115c1.508-1.08,1.645-2.095,1.652-2.167l-0.008-1.088l0,0
		v-0.037l1.117,0.023c0.182-0.001,0.357-0.023,0.535-0.056c0.027-0.006,0.053-0.01,0.078-0.015c0.168-0.035,0.33-0.086,0.492-0.148
		c0.029-0.012,0.059-0.024,0.088-0.036c0.16-0.068,0.32-0.149,0.473-0.246c0.021-0.012,0.041-0.025,0.061-0.038
		c0.158-0.104,0.314-0.217,0.467-0.349c0.004-0.003,0.008-0.006,0.012-0.01c0.154-0.133,0.303-0.285,0.449-0.448
		c0.02-0.022,0.041-0.043,0.061-0.065c0.141-0.161,0.279-0.339,0.414-0.528c0.02-0.025,0.039-0.055,0.059-0.082
		c0.135-0.197,0.27-0.407,0.398-0.634c0.008-0.012,0.014-0.024,0.021-0.036c0.135-0.239,0.268-0.491,0.395-0.761
		c0-0.002,0.002-0.004,0.002-0.005c0.127-0.267,0.248-0.549,0.365-0.843c0.01-0.027,0.021-0.055,0.033-0.082
		c0.113-0.292,0.223-0.598,0.33-0.917c0.008-0.026,0.018-0.053,0.023-0.079c0.332-1.012,0.623-2.157,0.871-3.431
		c0.006-0.027,0.01-0.054,0.016-0.081c0.08-0.419,0.158-0.851,0.229-1.297c0.002-0.019,0.004-0.037,0.008-0.057
		c0.145-0.917,0.271-1.891,0.377-2.92c0.129-1.28,0.229-2.642,0.293-4.087l0.01-0.246l0.115-0.221
		c1.504-2.898,2.408-6.036,2.691-9.324l2.236,0.192c-0.037,0.419-0.082,0.837-0.137,1.251c1.164,0.991,2.037,2.593,2.426,4.526
		c1.889-1.118,3.162-3.167,3.162-5.517C77.865,33.392,76.5,31.192,74.302,30.096z M51.601,54.052c0,0.246-0.031,0.498-0.096,0.771
		l-2.184-0.527c0.023-0.098,0.035-0.176,0.035-0.243c0-1.035-1.662-2.188-4.049-2.188c-2.386,0-4.05,1.153-4.05,2.188
		c0,0.067,0.012,0.146,0.034,0.243l-2.181,0.527c-0.065-0.272-0.097-0.524-0.097-0.771c0-2.485,2.764-4.433,6.294-4.433
		C48.837,49.62,51.601,51.567,51.601,54.052z M24.105,42.433l-0.074,0.008l-0.058-0.493c-0.141-0.62-0.216-1.24-0.219-1.855
		l-0.875-7.417h9.471c0.608-0.057,1.237-0.092,1.902-0.092c2.958,0,5.952,0.203,7.816,1.67c1.78,1.403,2.684,3.921,2.684,7.482
		c0,4.898-4.515,8.591-10.5,8.591C29.216,50.328,25.26,46.52,24.105,42.433z M45.072,67.181l-7.469-4.767h14.901L45.072,67.181z
		 M67.007,39.766c0.002,0.096,0.014,0.188,0.014,0.287c0,0.79-0.129,1.591-0.354,2.385l-0.002,0.014l-0.002-0.001
		c-1.16,4.081-5.113,7.877-10.141,7.877c-5.986,0-10.498-3.692-10.498-8.591c0-3.561,0.902-6.079,2.682-7.482
		c1.271-1,3.07-1.408,5.021-1.568v-0.011h0.125c0.873-0.067,1.771-0.092,2.67-0.092c0.664,0,1.293,0.035,1.902,0.092h9.48
		L67.007,39.766z"/>
	<circle cx="71.003" cy="52.124" r="1.679"/>
	<circle cx="18.958" cy="52.124" r="1.679"/>
</g>
</svg>
