<?xml version="1.0" encoding="utf-8"?>
<!-- Generator: Adobe Illustrator 15.1.0, SVG Export Plug-In . SVG Version: 6.00 Build 0)  -->
<!DOCTYPE svg PUBLIC "-//W3C//DTD SVG 1.1//EN" "http://www.w3.org/Graphics/SVG/1.1/DTD/svg11.dtd">
<svg version="1.1" id="_x32_" xmlns="http://www.w3.org/2000/svg" xmlns:xlink="http://www.w3.org/1999/xlink" x="0px" y="0px"
	 width="90.71px" height="90.71px" viewBox="0 0 90.71 90.71" enable-background="new 0 0 90.71 90.71" xml:space="preserve">
<g>
	<path d="M44.777,70.604c0.219-0.214,0.503-0.321,0.786-0.321c0.284,0,0.567,0.107,0.786,0.321c1.061,1.035,2.763,1.652,4.553,1.652
		c3.027,0,5.585-1.769,5.585-3.864c0-0.642-0.262-1.245-0.683-1.783c-3.225,1.402-6.69,2.184-10.26,2.184
		c-3.558,0-7.013-0.781-10.227-2.178c-0.418,0.538-0.678,1.141-0.678,1.777c0,2.096,2.558,3.864,5.586,3.864
		C42.015,72.256,43.717,71.639,44.777,70.604z"/>
	<path d="M67.984,19.91C62.502,10.458,54.282,8.474,48.351,8.474c-9.667,0-18.728,4.893-23.984,9.471
		c-9.546,8.314-6.204,22.801-5.175,26.418c3.811-0.394,7.232-1.2,10.3-2.279c0.049-0.305,0.212-0.589,0.492-0.768
		c0.42-0.269,0.942-0.212,1.309,0.085c15.572-6.31,21.194-19.689,21.264-19.856c0.206-0.506,0.746-0.787,1.277-0.677
		c0.533,0.116,0.907,0.596,0.887,1.142c-0.21,5.453-1.766,9.549-3.177,12.189c6.288-4.013,7.675-11.223,7.691-11.308
		c0.098-0.54,0.568-0.924,1.104-0.924c0.048,0,0.097,0.003,0.146,0.009c0.593,0.076,1.021,0.603,0.976,1.2
		c-1.18,15.343,6.813,21.197,9.593,22.753c0.185-0.354,0.385-0.713,0.59-1.08C73.874,40.837,76.933,35.341,67.984,19.91z"/>
	<path d="M76.239,37.365c-0.075,3.968-1.494,6.53-2.634,8.579c-0.155,0.278-0.301,0.547-0.443,0.811
		c-0.325,1.054-0.7,2.089-1.127,3.098c2.621-0.251,4.787-4.076,4.787-8.592C76.822,39.862,76.606,38.541,76.239,37.365z"/>
	<path d="M17.323,45.936c-0.132-0.385-1.695-5.026-1.826-10.892c-0.981,1.579-1.607,3.795-1.607,6.216
		c0,4.67,2.316,8.615,5.058,8.615c0.039,0,0.075-0.012,0.113-0.014c-0.458-1.08-0.867-2.186-1.208-3.318
		C17.612,46.412,17.417,46.208,17.323,45.936z"/>
	<path d="M60.513,9.237c-0.143-4.77-5.788-8.622-12.723-8.622c-6.773,0-12.313,3.676-12.699,8.292
		c4.391-1.725,8.967-2.68,13.259-2.68C51.949,6.227,56.313,6.899,60.513,9.237z"/>
	<path d="M60.142,64.252c-0.741,0.492-1.504,0.944-2.281,1.358c0.553,0.837,0.875,1.779,0.875,2.781
		c0,3.371-3.516,6.112-7.835,6.112c-2.009,0-3.9-0.585-5.338-1.63c-1.438,1.045-3.329,1.63-5.338,1.63
		c-4.319,0-7.833-2.741-7.833-6.112c0-0.996,0.316-1.932,0.863-2.764c-0.688-0.368-1.359-0.77-2.018-1.191
		c-3.289,5.317-5.367,12.899-5.823,18.854c-0.164,2.143,0.294,3.815,1.362,4.972c0.696,0.754,1.567,1.195,2.35,1.456l3.014,0.378
		h28.426c0,0,2.597-0.027,4.268-1.834c1.067-1.156,1.47-2.829,1.306-4.972C65.678,77.275,63.518,69.585,60.142,64.252z
		 M45.99,85.424c-0.739,0-1.34-0.601-1.34-1.339c0-0.742,0.602-1.341,1.34-1.341c0.739,0,1.341,0.599,1.341,1.341
		C47.331,84.824,46.729,85.424,45.99,85.424z M45.99,79.246c-0.739,0-1.34-0.6-1.34-1.342c0-0.739,0.602-1.341,1.34-1.341
		c0.739,0,1.341,0.602,1.341,1.341C47.331,78.646,46.729,79.246,45.99,79.246z"/>
	<path d="M59.218,29.167c-1.817,3.262-5.015,7.019-10.512,8.851c-0.485,0.162-1.021-0.026-1.299-0.458
		c-0.278-0.431-0.229-0.997,0.121-1.373c0.033-0.037,2.717-3.017,4.125-8.537c-3.169,4.668-9.087,11.358-18.718,15.492
		c0.072,0.057,0.141,0.114,0.218,0.169c0.438-0.226,0.927-0.367,1.454-0.367c1.759,0,3.184,1.427,3.184,3.184
		c0,1.761-1.425,3.184-3.184,3.184c-1.758,0-3.183-1.423-3.183-3.184c0-0.405,0.083-0.792,0.222-1.147
		c-0.395-0.304-0.742-0.618-1.026-0.915c-3.104,1.126-6.577,1.961-10.411,2.417c3.667,11.381,13.926,20.062,25.333,20.062
		c10.868,0,20.695-7.882,24.775-18.467C67.758,46.711,60.269,41.683,59.218,29.167z M42.827,53.435
		c0.48,0.017,0.859,0.339,0.88,0.803c0.053,1.166,1.004,2.081,2.166,2.081c1.162,0,2.114-0.915,2.168-2.081
		c0.021-0.464,0.405-0.786,0.88-0.803c0.464,0.022,0.825,0.416,0.803,0.881c-0.094,2.066-1.786,3.688-3.851,3.688
		s-3.755-1.622-3.85-3.688C42.001,53.851,42.361,53.458,42.827,53.435z M45.973,63.141l-6.471-4.13h12.904L45.973,63.141z
		 M61.775,42.87c-0.042,0.065-0.775,1.172-2,2.111c0.14,0.355,0.222,0.742,0.222,1.147c0,1.761-1.425,3.184-3.184,3.184
		s-3.184-1.423-3.184-3.184c0-1.757,1.425-3.184,3.184-3.184c0.527,0,1.018,0.141,1.453,0.367c0.985-0.701,1.612-1.648,1.62-1.661
		c0.338-0.52,1.034-0.668,1.554-0.33C61.959,41.657,62.11,42.348,61.775,42.87z"/>
</g>
</svg>
