<?xml version="1.0" encoding="utf-8"?>
<!-- Generator: Adobe Illustrator 15.1.0, SVG Export Plug-In . SVG Version: 6.00 Build 0)  -->
<!DOCTYPE svg PUBLIC "-//W3C//DTD SVG 1.1//EN" "http://www.w3.org/Graphics/SVG/1.1/DTD/svg11.dtd">
<svg version="1.1" id="_x32_" xmlns="http://www.w3.org/2000/svg" xmlns:xlink="http://www.w3.org/1999/xlink" x="0px" y="0px"
	 width="90.71px" height="90.71px" viewBox="0 0 90.71 90.71" enable-background="new 0 0 90.71 90.71" xml:space="preserve">
<g>
	<path d="M58.21,68.906l-12.673,9.598l-12.723-9.635c-6.066-0.371-12.816-1.158-18.126-2.748
		c-3.086,4.846-5.729,10.357-7.452,15.813c-0.66,2.09-0.538,3.773,0.363,5.002c1.969,2.686,7.042,2.82,8.04,2.82l0.206-0.002h29.408
		l29.536,0.004c0.996,0,6.07-0.137,8.039-2.822c0.9-1.229,1.023-2.912,0.363-5.002c-1.693-5.359-4.262-10.771-7.262-15.547
		C70.617,67.849,64.056,68.568,58.21,68.906z M48.304,87.074c-1.904,0-3.447-1.543-3.447-3.445c0-1.904,1.543-3.447,3.447-3.447
		c1.902,0,3.447,1.543,3.447,3.447C51.751,85.531,50.207,87.074,48.304,87.074z"/>
	<path d="M48.242,69.187l3.061,2.318l3.207-2.43C52.15,69.16,50.005,69.187,48.242,69.187z"/>
	<path d="M36.535,69.054l3.236,2.451l3.063-2.32C41.029,69.179,38.881,69.144,36.535,69.054z"/>
	<path d="M10.028,36.69c1.209-2.899,2.607-5.827,4.149-8.703c-0.332-0.075-0.675-0.115-1.025-0.115c-3.02,0-5.477,2.83-5.477,6.31
		c0,1.337,0.369,2.573,0.986,3.594L10.028,36.69z"/>
	<path d="M81.882,37.856c0.648-1.036,1.035-2.302,1.035-3.674c0-3.479-2.457-6.31-5.477-6.31c-0.121,0-0.236,0.02-0.355,0.029
		c1.723,3.218,3.283,6.527,4.633,9.829L81.882,37.856z"/>
</g>
<g>
	<path d="M44.896,0.954c-3.403,0.232-7.048,2.002-10.688,4.851c-3.08,2.632-6.085,6.028-8.91,9.455h40.609
		C60.039,8.521,51.603,1.38,44.896,0.954z"/>
	<path d="M83.066,47.636L83,47.38l1.217-5.085l-4.229-3.249l-0.107-0.264c-3.041-7.503-7.16-15.058-11.818-21.425H23.37
		c-4.534,6.125-8.58,13.311-11.508,20.386l-0.104,0.251l-5.396,4.29l1.65,7.014l-0.049,0.23c-0.826,3.824-1.024,6.918-0.589,9.195
		c1.179,6.174,20.187,8.365,36.105,8.365c1.237,0,2.063-0.016,2.337-0.021c0.315,0.006,1.141,0.021,2.372,0.021
		c15.84,0,34.758-2.191,35.936-8.365C84.632,56.07,84.267,52.236,83.066,47.636z M45.126,35.21c-2.693,0-4.885,2.191-4.885,4.885
		c0,0.437,0.063,0.882,0.188,1.326l-2.452,0.689c-0.188-0.667-0.283-1.346-0.283-2.015c0-4.099,3.334-7.433,7.433-7.433
		c4.1,0,7.432,3.334,7.432,7.433c0,0.669-0.096,1.347-0.281,2.015l-2.453-0.689c0.125-0.444,0.188-0.889,0.188-1.326
		C50.011,37.402,47.82,35.21,45.126,35.21z M38.32,22.717l4.726-2.025l-1.52,5.906l-19.244-3.712L38.32,22.717z M29.862,33.938
		c0-1.911,1.548-3.459,3.458-3.459s3.459,1.548,3.459,3.459c0,1.912-1.549,3.459-3.459,3.459S29.862,35.85,29.862,33.938z
		 M45.252,60.617L35.008,54.08h20.433L45.252,60.617z M57.128,37.398c-1.91,0-3.459-1.548-3.459-3.459
		c0-1.911,1.549-3.459,3.459-3.459c1.912,0,3.459,1.548,3.459,3.459C60.587,35.85,59.041,37.398,57.128,37.398z M48.923,26.598
		l-1.52-5.906l4.727,2.025l16.035,0.169L48.923,26.598z"/>
</g>
</svg>
