<?xml version="1.0" encoding="utf-8"?>
<!-- Generator: Adobe Illustrator 15.1.0, SVG Export Plug-In . SVG Version: 6.00 Build 0)  -->
<!DOCTYPE svg PUBLIC "-//W3C//DTD SVG 1.1//EN" "http://www.w3.org/Graphics/SVG/1.1/DTD/svg11.dtd">
<svg version="1.1" id="レイヤー_1" xmlns="http://www.w3.org/2000/svg" xmlns:xlink="http://www.w3.org/1999/xlink" x="0px"
	 y="0px" width="595.28px" height="595.28px" viewBox="0 0 595.28 595.28" enable-background="new 0 0 595.28 595.28"
	 xml:space="preserve">
<g>
	<path fill="#4C4B4B" d="M59.44,111.727l119.1-13.689l10.952,64.341c0,0,56.128-17.796,91.721-8.214
		c35.593,9.583,77.344,38.331,77.344,38.331l95.146-16.428l-12.321-98.565c0,0-73.925-64.341-206.714-64.341
		c-132.79,0-198.5,80.769-198.5,80.769l17.796,24.641L59.44,111.727z"/>
	<path fill="#4C4B4B" d="M404.419,200.709c0,0,27.381,57.497,9.584,108.148c-17.797,50.652-35.594,61.604-35.594,61.604
		l12.32,102.673l101.305-12.321c0,0,67.079-75.293,67.079-219.034c0-106.779-82.138-188.917-82.138-188.917l-23.272,17.796
		l17.796,121.838L404.419,200.709z"/>
	<path fill="#4C4B4B" d="M535.841,414.268c-13.689,32.855-38.331,58.866-38.331,58.866l-119.101,16.427l-6.845-64.341
		c0,0-16.428,15.059-71.141,15.059c-54.712,0-99.98-41.069-99.98-41.069L99.14,414.268l13.69,98.565c0,0,94.458,67.08,198.5,67.08
		c104.042,0,112.256-32.855,142.373-30.117c30.117,2.737,52.021,21.903,52.021,21.903l88.982-110.887
		C594.706,460.813,582.386,440.278,535.841,414.268z"/>
	<path fill="#4C4B4B" d="M156.637,390.995c0,0-19.166-32.854-16.428-86.244c2.034-39.648,39.7-90.352,39.7-90.352l-12.321-99.935
		l-102.672,9.583c0,0-64.341,68.448-64.341,191.701c0,147.804,79.4,216.251,79.4,216.251l19.166-9.583L84.082,400.578
		L156.637,390.995z"/>
</g>
</svg>
