<?xml version="1.0" encoding="utf-8"?>
<!-- Generator: Adobe Illustrator 15.1.0, SVG Export Plug-In . SVG Version: 6.00 Build 0)  -->
<!DOCTYPE svg PUBLIC "-//W3C//DTD SVG 1.1//EN" "http://www.w3.org/Graphics/SVG/1.1/DTD/svg11.dtd">
<svg version="1.1" id="_x32_" xmlns="http://www.w3.org/2000/svg" xmlns:xlink="http://www.w3.org/1999/xlink" x="0px" y="0px"
	 width="90.71px" height="90.71px" viewBox="0 0 90.71 90.71" enable-background="new 0 0 90.71 90.71" xml:space="preserve">
<g>
	<path fill-rule="evenodd" clip-rule="evenodd" d="M32.613,30.589c2.249,0.236,4.694,0.49,7.257,0.64
		c0.208-0.902,0.651-1.552,1.1-1.552c0.458,0,0.921,0.696,1.121,1.649c0.641,0.02,1.284,0.033,1.935,0.033h0.198
		c0.443,0,0.885-0.007,1.323-0.016c0.198-0.961,0.664-1.666,1.125-1.666c0.454,0,0.902,0.665,1.107,1.583
		c2.781-0.143,5.435-0.417,7.856-0.672c2.854-0.3,5.318-0.559,7.475-0.559c1.596,0,3.428,0.143,4.953,0.853
		c-0.452-7.987-2.931-17.869-8.909-24.037c-3.967-4.091-9.058-6.165-15.129-6.165c-5.979,0-11,2.052-14.924,6.1
		c-5.985,6.172-8.465,16.079-8.917,24.102c1.525-0.71,3.358-0.853,4.954-0.853C27.296,30.03,29.76,30.289,32.613,30.589z
		 M58.294,21.528c1.015,0,1.831,1.423,1.831,3.254c0,1.841-0.816,3.462-1.831,3.462c-0.816,0-1.632-1.622-1.632-3.462
		C56.663,22.951,57.478,21.528,58.294,21.528z M29.965,21.528c0.816,0,1.631,1.423,1.631,3.254c0,1.841-0.815,3.462-1.631,3.462
		c-1.025,0-1.831-1.622-1.831-3.462C28.134,22.951,28.94,21.528,29.965,21.528z"/>
	<path fill-rule="evenodd" clip-rule="evenodd" d="M44.026,52.553h0.198c12.475,0,24.717-7.9,24.717-15.95
		c0-2.688-0.953-4.244-5.83-4.244c-2.034,0-4.442,0.253-7.231,0.546c-3.493,0.367-7.452,0.782-11.655,0.782h-0.198
		c-4.203,0-8.162-0.416-11.656-0.782c-2.788-0.293-5.196-0.546-7.231-0.546c-4.306,0-5.831,1.111-5.831,4.244
		C19.309,44.653,31.551,52.553,44.026,52.553z M34.038,37.467c0.222-0.405,0.659-0.644,1.123-0.602
		c0.046,0.004,4.688,0.404,8.865,0.404h0.198c4.188,0,8.828-0.4,8.875-0.404c0.463-0.041,0.901,0.197,1.122,0.602
		c0.222,0.406,0.183,0.905-0.101,1.271c-0.155,0.202-3.892,4.94-9.896,4.94h-0.198c-6.006,0-9.732-4.739-9.888-4.941
		C33.855,38.371,33.816,37.873,34.038,37.467z"/>
	<path fill-rule="evenodd" clip-rule="evenodd" d="M44.224,41.349c2.381,0,4.351-0.953,5.746-1.933
		c-1.67,0.095-3.756,0.182-5.746,0.182h-0.198c-2.001,0-4.068-0.086-5.725-0.18c1.397,0.979,3.362,1.931,5.725,1.931H44.224z"/>
	<path fill-rule="evenodd" clip-rule="evenodd" d="M70.454,48.583c0.563,0.203,1.105,0.453,1.631,0.753
		c0.523,0.305,1.034,0.65,1.493,1.128c-0.66,0.07-1.271,0.008-1.869-0.095c-0.596-0.108-1.172-0.268-1.732-0.473
		c-0.444-0.162-0.876-0.362-1.3-0.584c-0.153,0.882-0.313,1.759-0.476,2.63c0.152,0.09,0.309,0.178,0.457,0.275
		c0.545,0.356,1.063,0.753,1.551,1.194c0.484,0.446,0.945,0.93,1.331,1.529c-0.704-0.113-1.331-0.344-1.934-0.61
		c-0.59-0.265-1.148-0.577-1.683-0.926c-0.153,0.79-0.308,1.568-0.462,2.336c0.127,0.107,0.256,0.213,0.376,0.327
		c0.392,0.373,0.748,0.779,1.068,1.227c0.316,0.451,0.603,0.934,0.792,1.518c-0.592-0.163-1.086-0.428-1.551-0.722
		c-0.36-0.233-0.692-0.498-1.008-0.778c-0.146,0.713-0.294,1.412-0.441,2.092c0.159,0.229,0.329,0.452,0.504,0.665
		c0.47,0.131,0.93,0.284,1.38,0.468c1.006,0.404,1.957,0.93,2.838,1.546c1.846-0.22,3.901-1.644,5.479-3.832
		c1.672-2.32,2.429-4.973,1.886-6.603c-0.005-0.015-0.011-0.029-0.015-0.044c-1.16-4.003-6.473-5.931-9.376-6.699
		c-0.161,1.075-0.333,2.159-0.517,3.244C69.417,48.256,69.943,48.399,70.454,48.583z"/>
	<path fill-rule="evenodd" clip-rule="evenodd" d="M51.992,53.943c0.574-0.079,1.151-0.12,1.726-0.119
		c2.205,0,4.365,0.59,6.257,1.662c1.745,0.979,3.226,2.396,4.303,4.06c0.877-4.06,1.836-8.857,2.583-13.536
		c-1.216,1.242-2.661,2.417-4.324,3.492C59.388,51.534,55.752,53.045,51.992,53.943z"/>
	<path fill-rule="evenodd" clip-rule="evenodd" d="M80.096,57.436c-0.359,0.733-0.796,1.465-1.31,2.177
		c-1.493,2.073-3.342,3.564-5.24,4.304c0.821,0.872,1.529,1.841,2.082,2.889c0.748,1.392,1.227,2.911,1.413,4.446
		c-0.416-1.49-1.085-2.884-1.943-4.124c-0.865-1.233-1.911-2.328-3.109-3.202c-1.192-0.878-2.513-1.565-3.907-1.997
		c-1.393-0.429-2.842-0.645-4.284-0.598l-0.461,0.015l-0.289-0.43c-1.03-1.532-2.448-2.779-4.059-3.629
		c-1.608-0.853-3.446-1.253-5.234-1.225c-1.838,0.016-3.612,0.504-5.194,1.391c-1.574,0.892-2.957,2.139-4.002,3.639l-0.894,1.286
		l-0.949-1.231c-0.678-0.879-1.594-1.619-2.611-2.119c-1.028-0.497-2.118-0.795-3.271-0.767c-1.085,0.018-2.228,0.343-3.238,0.903
		c-1.016,0.564-1.955,1.33-2.731,2.248l-0.266,0.313l-0.356,0.02c-1.477,0.078-2.94,0.385-4.358,0.85
		c-1.417,0.47-2.773,1.146-4.026,1.985c-1.26,0.833-2.399,1.857-3.368,3.034c-0.959,1.184-1.75,2.538-2.176,4.046
		c0.191-1.558,0.803-3.069,1.664-4.414c0.857-1.352,1.969-2.539,3.213-3.564c0.348-0.283,0.71-0.548,1.081-0.802
		c-0.467-2.015-0.979-4.315-1.485-6.767c-0.065-0.002-0.129-0.007-0.194-0.007c-6.886,0-12.488,5.696-12.488,12.698
		c0,6.885,5.602,12.486,12.488,12.486h0.199c0.278,0,0.547,0.101,0.758,0.281c2.817,2.414,6.85,3.798,11.063,3.798
		c2.605,0,5.328-0.555,7.47-1.527c0.155-0.069,0.319-0.103,0.48-0.103c0.37,0,0.73,0.177,0.954,0.495
		c2.737,3.9,7.18,6.23,11.883,6.23c2.435,0,4.714-0.571,6.774-1.697c0.285-0.155,0.62-0.187,0.927-0.084
		c1.142,0.381,2.254,0.558,3.504,0.558c1.519,0,3.011-0.312,4.431-0.93c0.28-0.119,0.597-0.127,0.879-0.02
		c0.362,0.139,0.781,0.209,1.242,0.209c1.56,0,3.431-0.791,5.082-1.727c-0.466-0.083-0.936-0.202-1.405-0.358
		c-0.383-0.127-0.672-0.444-0.766-0.837c-0.093-0.394,0.024-0.807,0.311-1.092c1.353-1.353,2.079-3.389,2.563-5.012
		c0.095-0.315,0.317-0.576,0.614-0.718c4.496-2.147,7.288-6.508,7.288-11.379C84.842,63.352,82.982,59.764,80.096,57.436z"/>
	<path fill-rule="evenodd" clip-rule="evenodd" d="M44.026,54.882c-6.341,0-13.015-1.961-18.312-5.381
		c-1.706-1.103-3.186-2.311-4.421-3.587c0.871,5.544,2.072,11.261,3.093,15.729c0.317-0.158,0.638-0.31,0.965-0.448
		c1.376-0.593,2.846-0.968,4.34-1.174c0.809-1.004,1.769-1.907,2.909-2.585c1.244-0.74,2.66-1.225,4.185-1.302
		c1.456-0.078,2.982,0.233,4.296,0.876c0.893,0.43,1.71,0.998,2.439,1.675c1.09-1.311,2.412-2.436,3.924-3.25
		c0.846-0.466,1.753-0.83,2.685-1.098c-1.966,0.358-3.952,0.545-5.905,0.545H44.026z"/>
	<path fill-rule="evenodd" clip-rule="evenodd" d="M19.677,50.392c-0.382-0.084-0.759-0.197-1.126-0.358
		c-0.421-0.19-0.835-0.423-1.223-0.793c0.497-0.201,0.967-0.266,1.429-0.287c0.226-0.007,0.448-0.001,0.669,0.016
		c-0.104-0.601-0.205-1.204-0.302-1.806c-0.265-0.064-0.528-0.136-0.787-0.219c-0.578-0.186-1.14-0.418-1.686-0.702
		c-0.543-0.289-1.075-0.618-1.563-1.082c0.667-0.09,1.29-0.047,1.901,0.037c0.608,0.089,1.2,0.23,1.777,0.418
		c0.041,0.013,0.08,0.03,0.12,0.044c-0.09-0.591-0.177-1.181-0.258-1.766c-0.312-0.145-0.619-0.295-0.92-0.457
		c-0.663-0.355-1.303-0.754-1.917-1.2c-0.611-0.452-1.203-0.941-1.727-1.554c0.8,0.1,1.534,0.324,2.248,0.586
		c0.71,0.266,1.396,0.581,2.058,0.938c0.013,0.007,0.025,0.015,0.039,0.022c-0.013-0.098-0.025-0.197-0.038-0.295
		c-0.612-1.174-1.033-2.373-1.24-3.577c-3.038-1.916-6.344-3.667-7.962-3.667c-0.273,0-0.359,0.056-0.36,0.057
		c-0.83,0.908-1.919,6.539,0.12,11.169c1.845,4.188,5.58,6.324,11.096,6.354C19.906,51.648,19.79,51.021,19.677,50.392z"/>
</g>
</svg>
