<?xml version="1.0" encoding="utf-8"?>
<!-- Generator: Adobe Illustrator 15.1.0, SVG Export Plug-In . SVG Version: 6.00 Build 0)  -->
<!DOCTYPE svg PUBLIC "-//W3C//DTD SVG 1.1//EN" "http://www.w3.org/Graphics/SVG/1.1/DTD/svg11.dtd">
<svg version="1.1" id="_x32_" xmlns="http://www.w3.org/2000/svg" xmlns:xlink="http://www.w3.org/1999/xlink" x="0px" y="0px"
	 width="90.71px" height="90.71px" viewBox="0 0 90.71 90.71" enable-background="new 0 0 90.71 90.71" xml:space="preserve">
<g>
	<path fill-rule="evenodd" clip-rule="evenodd" d="M44.113,54.841h-0.198c-6.311,0-12.952-1.953-18.223-5.357
		c-1.697-1.096-3.17-2.299-4.399-3.57c0.888,5.648,2.121,11.477,3.151,15.969c1.809-0.691,3.703-1.119,5.479-1.309
		c3.238-4.465,9.932-4.664,13.586-0.604c5.066-7.094,15.599-7.1,20.466,0.182c0.939-4.205,1.982-9.291,2.76-14.238
		c-1.229,1.271-2.701,2.475-4.4,3.57C57.065,52.888,50.424,54.841,44.113,54.841z"/>
	<path fill-rule="evenodd" clip-rule="evenodd" d="M43.915,52.523h0.198c12.413,0,24.596-7.866,24.596-15.881
		c0-3.115-1.516-4.219-5.789-4.219c-2.025,0-4.422,0.252-7.197,0.545c-3.479,0.367-7.424,0.783-11.61,0.783h-0.198
		c-4.187,0-8.131-0.416-11.61-0.783c-2.776-0.292-5.173-0.545-7.197-0.545c-4.274,0-5.789,1.104-5.789,4.219
		C19.318,44.657,31.502,52.523,43.915,52.523z M33.968,37.528c0.217-0.412,0.657-0.652,1.122-0.615
		c0.048,0.004,4.861,0.401,8.825,0.401h0.198c4.155,0,8.774-0.397,8.821-0.401c0.461-0.04,0.896,0.195,1.117,0.599
		s0.182,0.9-0.1,1.264c-0.156,0.2-3.863,4.906-9.838,4.906h-0.198c-5.761,0-9.656-4.682-9.819-4.881
		C33.802,38.441,33.751,37.94,33.968,37.528z"/>
	<path fill-rule="evenodd" clip-rule="evenodd" d="M44.113,41.365c2.364,0,4.317-0.942,5.702-1.912
		c-1.648,0.093-3.709,0.179-5.702,0.179h-0.198c-1.898,0-3.948-0.085-5.614-0.179c1.413,0.972,3.36,1.912,5.614,1.912H44.113z"/>
	<path fill-rule="evenodd" clip-rule="evenodd" d="M32.548,30.664c2.239,0.236,4.676,0.49,7.23,0.64
		c0.206-0.902,0.648-1.553,1.097-1.553c0.606,0,0.987,0.699,1.136,1.651c0.63,0.019,1.264,0.032,1.904,0.032h0.198
		c0.44,0,0.878-0.007,1.314-0.016c0.196-0.961,0.661-1.667,1.122-1.667c0.445,0,0.896,0.666,1.104,1.585
		c2.771-0.142,5.414-0.417,7.828-0.671c2.84-0.299,5.293-0.558,7.439-0.558c1.582,0,3.4,0.142,4.914,0.846
		c-0.453-7.96-2.92-17.788-8.867-23.921c-3.924-4.048-8.955-6.111-14.954-6.134C38.016,0.918,32.984,2.982,29.06,7.03
		c-5.947,6.133-8.414,15.961-8.866,23.921c1.514-0.704,3.332-0.846,4.914-0.846C27.254,30.105,29.706,30.364,32.548,30.664z
		 M51.766,23.208l7.1-3.04c0.59-0.252,1.27,0.021,1.521,0.609c0.252,0.588-0.02,1.269-0.609,1.521l-1.904,0.815h2.666
		c0.641,0,1.16,0.519,1.16,1.159s-0.52,1.159-1.16,1.159h-2.998l2.264,1.035c0.582,0.266,0.838,0.954,0.57,1.536
		c-0.193,0.425-0.615,0.677-1.055,0.677c-0.16,0-0.324-0.034-0.48-0.105l-7.1-3.248c-0.416-0.191-0.682-0.609-0.676-1.068
		C51.071,23.802,51.344,23.39,51.766,23.208z M29.923,21.64c1.011,0,1.614,1.416,1.614,3.248c0,1.822-0.604,3.445-1.614,3.445
		c-1.02,0-1.623-1.624-1.623-3.445C28.3,23.056,28.903,21.64,29.923,21.64z"/>
	<path fill-rule="evenodd" clip-rule="evenodd" d="M72.502,46.583c-0.486,0.461-1.014,0.789-1.555,1.076
		c-0.543,0.283-1.104,0.514-1.678,0.699c-0.199,0.064-0.402,0.115-0.605,0.168c-0.105,0.615-0.213,1.227-0.322,1.838
		c0.104-0.002,0.207-0.01,0.311-0.006c0.461,0.021,0.93,0.084,1.424,0.283c-0.387,0.369-0.797,0.6-1.217,0.791
		c-0.252,0.109-0.506,0.193-0.764,0.268c-0.125,0.666-0.252,1.328-0.381,1.984c5.207-0.012,8.787-2.027,10.641-5.994
		c2.219-4.748,1.107-10.394,0.41-11.441c-0.033-0.009-0.125-0.032-0.301-0.032c-1.578,0-4.855,1.668-7.918,3.52
		c-0.225,0.747-0.527,1.488-0.908,2.219c-0.063,0.503-0.127,1.01-0.197,1.52c0.545-0.287,1.102-0.55,1.682-0.773
		c0.693-0.261,1.408-0.485,2.189-0.586c-0.502,0.608-1.07,1.095-1.66,1.543c-0.594,0.444-1.213,0.84-1.855,1.194
		c-0.195,0.107-0.395,0.204-0.596,0.303c-0.09,0.618-0.188,1.236-0.287,1.857c0.551-0.176,1.115-0.311,1.697-0.395
		C71.219,46.537,71.838,46.494,72.502,46.583z"/>
	<path fill-rule="evenodd" clip-rule="evenodd" d="M19.676,50.316c-0.309-0.08-0.615-0.176-0.914-0.307
		c-0.42-0.191-0.831-0.424-1.216-0.793c0.494-0.199,0.963-0.26,1.423-0.281c0.156-0.006,0.311,0.004,0.466,0.012
		c-0.104-0.596-0.203-1.191-0.3-1.787c-0.264-0.064-0.525-0.135-0.783-0.217c-0.574-0.186-1.134-0.416-1.677-0.699
		c-0.541-0.287-1.069-0.615-1.555-1.076c0.663-0.09,1.283-0.047,1.891,0.037c0.606,0.089,1.195,0.229,1.769,0.415
		c0.041,0.014,0.08,0.03,0.12,0.045c-0.091-0.592-0.177-1.182-0.258-1.768c-0.31-0.143-0.615-0.293-0.915-0.454
		c-0.66-0.354-1.297-0.75-1.908-1.195c-0.608-0.449-1.196-0.936-1.719-1.546c0.797,0.1,1.527,0.323,2.237,0.583
		c0.708,0.265,1.39,0.578,2.049,0.934c0.012,0.006,0.023,0.014,0.036,0.021c-0.012-0.097-0.024-0.194-0.036-0.291
		c-0.608-1.169-1.028-2.363-1.233-3.563c-3.023-1.906-6.313-3.649-7.923-3.649c-0.272,0-0.357,0.056-0.358,0.057
		c-0.826,0.904-1.912,6.51,0.119,11.121c1.836,4.169,5.552,6.294,11.041,6.325C19.91,51.603,19.792,50.96,19.676,50.316z"/>
	<path fill-rule="evenodd" clip-rule="evenodd" d="M74.151,54.804c-1.736,0.734-3.859,1.199-6.482,1.199
		c-0.137,0-0.277-0.004-0.416-0.008c-0.322,1.557-0.645,3.051-0.957,4.451c5.324,1.113,9.838,5.373,11.078,10.871
		c0,0.613,0,0.813-0.207,0.209c-1.209-6.08-7.496-9.537-13.785-9.734c-4.871-7.703-15.209-6.893-19.674,0.406
		c-3.446-4.258-9.932-4.873-13.18,0.197c-5.476,0.209-13.18,2.238-14.596,8.318c0,0.604-0.208,0.406,0-0.199
		c0.792-3.518,3.3-6.021,6.351-7.65c-0.469-2.021-0.983-4.334-1.492-6.799c-0.065-0.002-0.13-0.006-0.194-0.006
		c-6.857,0-12.437,5.662-12.437,12.625c0,6.852,5.579,12.426,12.437,12.426h0.198c0.276,0,0.544,0.1,0.754,0.279
		c2.803,2.402,6.815,3.781,11.01,3.781c2.69,0,5.196-0.502,7.661-1.535c0.146-0.061,0.298-0.09,0.447-0.09
		c0.384,0,0.754,0.191,0.973,0.529c2.505,3.859,6.842,6.164,11.604,6.164c2.066,0,4.232-0.545,6.818-1.717
		c0.268-0.121,0.568-0.135,0.846-0.045c1.039,0.346,2.309,0.545,3.486,0.545c1.516,0,2.961-0.301,4.418-0.918
		c0.275-0.117,0.586-0.123,0.865-0.016c0.361,0.137,0.777,0.207,1.236,0.207c1.557,0,3.424-0.791,5.07-1.727
		c-0.469-0.082-0.939-0.201-1.412-0.359c-0.381-0.127-0.67-0.443-0.762-0.834c-0.092-0.393,0.027-0.803,0.313-1.086
		c1.227-1.219,2.145-2.998,2.521-4.883c0.072-0.357,0.309-0.66,0.637-0.818c4.527-2.16,7.451-6.605,7.451-11.32
		C84.731,61.001,80.145,55.789,74.151,54.804z"/>
</g>
</svg>
