<?xml version="1.0" encoding="utf-8"?>
<!-- Generator: Adobe Illustrator 15.1.0, SVG Export Plug-In . SVG Version: 6.00 Build 0)  -->
<!DOCTYPE svg PUBLIC "-//W3C//DTD SVG 1.1//EN" "http://www.w3.org/Graphics/SVG/1.1/DTD/svg11.dtd">
<svg version="1.1" id="_x32_" xmlns="http://www.w3.org/2000/svg" xmlns:xlink="http://www.w3.org/1999/xlink" x="0px" y="0px"
	 width="90.71px" height="90.71px" viewBox="0 0 90.71 90.71" enable-background="new 0 0 90.71 90.71" xml:space="preserve">
<g>
	<path fill-rule="evenodd" clip-rule="evenodd" d="M30.838,31.084V15.513H15.267C-1.025,31.805-1.855,57.704,12.774,74.977v-18.31
		h14.083C22.59,48.409,23.914,38.009,30.838,31.084z"/>
	<path fill-rule="evenodd" clip-rule="evenodd" d="M85.295,63.717c-2.209,4.622-5.223,8.954-9.046,12.777l-0.73,0.729H56.421V63.208
		c-0.27,0.113-0.545,0.229-0.828,0.348c-8.708,3.656-18.06,2.3-24.755-4.396H15.267v15.572
		c13.919,13.919,33.201,17.441,51.421,7.904c2.743-1.436,4.776-1.585,7.697-0.786c4.796,1.313,7.223,4.996,7.223,4.996l7.103-20.195
		C88.71,66.651,87.44,65.29,85.295,63.717z"/>
	<path fill-rule="evenodd" clip-rule="evenodd" d="M58.916,59.16v15.572h15.571c16.292-16.293,17.122-42.191,2.493-59.465v18.31
		H62.896C67.164,41.836,65.84,52.235,58.916,59.16z"/>
	<path fill-rule="evenodd" clip-rule="evenodd" d="M33.332,27.103c8.259-4.268,18.658-2.944,25.584,3.981h15.571V15.512
		C58.194-0.781,32.296-1.61,15.022,13.02l18.31,0V27.103z"/>
</g>
</svg>
