<?xml version="1.0" encoding="utf-8"?>
<!-- Generator: Adobe Illustrator 15.1.0, SVG Export Plug-In . SVG Version: 6.00 Build 0)  -->
<!DOCTYPE svg PUBLIC "-//W3C//DTD SVG 1.1//EN" "http://www.w3.org/Graphics/SVG/1.1/DTD/svg11.dtd">
<svg version="1.1" id="_x32_" xmlns="http://www.w3.org/2000/svg" xmlns:xlink="http://www.w3.org/1999/xlink" x="0px" y="0px"
	 width="90.71px" height="90.71px" viewBox="0 0 90.71 90.71" enable-background="new 0 0 90.71 90.71" xml:space="preserve">
<g>
	<path fill-rule="evenodd" clip-rule="evenodd" d="M69.585,58.432c-0.089,0.097-0.193,0.17-0.303,0.228
		c0.419,0.316,0.878,0.563,1.381,0.717l5.933-13.663c-0.425-0.343-0.88-0.655-1.349-0.944c-0.061,0.179-0.162,0.348-0.313,0.483
		c-0.472,0.424-1.196,0.386-1.621-0.085c-0.761-0.841-2.26-2.057-3.058-1.999c-0.08,0.005-0.201,0.015-0.363,0.258
		c-1.481,2.235-2.319,11.592-0.374,13.383C69.986,57.24,70.016,57.965,69.585,58.432z"/>
	<path fill-rule="evenodd" clip-rule="evenodd" d="M66.111,50.588c0.082-1.908,0.363-3.823,0.744-5.394
		c-3.766-5.706-13.127-10.303-22.634-10.303h-0.196c-9.28,0-18.426,4.382-22.358,9.899c0.482,3.23,1.079,6.556,1.699,9.694
		c0.588,0.08,1.257,0.124,2.037,0.124c2.007,0,4.381-0.25,7.13-0.539c3.444-0.362,7.349-0.771,11.492-0.771h0.196
		c4.144,0,8.048,0.409,11.493,0.771c2.749,0.289,5.123,0.539,7.13,0.539h0.001c1,0,1.836-0.065,2.538-0.195
		C65.633,53.163,65.876,51.88,66.111,50.588z M55.288,48.418c-0.225,0.225-0.519,0.337-0.813,0.337s-0.587-0.111-0.812-0.335
		c-0.053-0.053-5.427-5.299-9.788-2.272c-4.685,3.418-9.4,1.457-11.236-0.059c-0.489-0.405-0.559-1.128-0.154-1.617
		c0.402-0.488,1.125-0.557,1.613-0.156c0.171,0.138,4.032,3.182,8.446-0.04c5.961-4.135,12.468,2.246,12.742,2.518
		C55.735,47.243,55.736,47.969,55.288,48.418z"/>
	<path fill-rule="evenodd" clip-rule="evenodd" d="M21.234,41.66c4.355-4.664,11.775-7.97,19.073-8.837
		c0.163-0.871,0.532-1.493,1.108-1.493c0.399,0,0.711,0.539,0.873,1.316c0.582-0.033,1.162-0.05,1.736-0.05h0.196
		c0.575,0,1.154,0.018,1.736,0.05c0.164-0.777,0.478-1.316,0.884-1.316c0.576,0,0.94,0.622,1.101,1.493
		c7.532,0.895,15.196,4.391,19.483,9.294c0.299-2.415,0.506-4.726,0.57-6.799c0.258-8.238-1.902-20.396-8.838-27.552
		c-3.875-4-8.831-6.028-14.729-6.028c-5.996,0-11.023,2.05-14.943,6.095c-6.93,7.149-9.089,19.274-8.831,27.484
		C20.744,37.259,20.951,39.41,21.234,41.66z M25.618,23.188c-0.608-0.179-0.956-0.818-0.777-1.426
		c0.18-0.609,0.818-0.956,1.427-0.777l18.765,5.531l18.763-5.531c0.609-0.178,1.247,0.168,1.427,0.777
		c0.179,0.608-0.169,1.247-0.776,1.426l-15.354,4.526l15.354,4.526c0.607,0.179,0.955,0.818,0.776,1.426
		c-0.147,0.5-0.605,0.824-1.101,0.824c-0.108,0-0.217-0.015-0.326-0.047l-18.763-5.531l-18.765,5.531
		c-0.108,0.032-0.218,0.047-0.325,0.047c-0.496,0-0.954-0.324-1.102-0.824c-0.179-0.608,0.169-1.247,0.777-1.426l15.353-4.526
		L25.618,23.188z"/>
	<path fill-rule="evenodd" clip-rule="evenodd" d="M9.568,27.518c1.228,0,2.736-2.238,3.833-4.545
		c-2.525,1.152-4.759,2.589-4.984,3.582c-0.02,0.085-0.054,0.24,0.224,0.528C8.973,27.375,9.276,27.518,9.568,27.518z"/>
	<path fill-rule="evenodd" clip-rule="evenodd" d="M10.566,16.711c-1.636,0-2.075,0.403-2.172,0.527
		c-0.167,0.216-0.115,0.617-0.038,0.925c0.255,0.802,0.705,1.13,1.548,1.13c1.469,0,3.503-1.007,5.081-1.97
		C13.658,17.016,11.986,16.711,10.566,16.711z"/>
	<path fill-rule="evenodd" clip-rule="evenodd" d="M74.938,55.297l-2.534,5.837c-0.184,0.422-0.599,0.69-1.053,0.69
		c-0.035,0-0.071-0.002-0.106-0.005c-1.324-0.123-2.983-0.707-4.54-2.438c-0.091,0.418-0.181,0.826-0.271,1.228
		c5.384,1.227,9.712,5.451,10.951,10.909c0.196,0.607,0,0.805-0.206,0.206c-1.207-6.025-7.438-9.646-13.462-9.646
		c-5.023-7.633-15.07-6.828-19.692,0.402c-3.414-4.425-9.645-4.827-13.059,0c-5.23,0.402-12.863,2.208-14.267,8.438
		c-0.206,0.599-0.402,0.402-0.206-0.196c0.786-3.608,3.282-6.141,6.313-7.739c-0.29-1.289-0.598-2.691-0.913-4.18
		c-1.459,1.823-3.159,2.835-5.088,3.015c-0.035,0.003-0.071,0.005-0.107,0.005c-0.457,0-0.877-0.273-1.057-0.702l-1.166-2.766
		c-3.437,2.172-5.675,5.957-5.675,10.355c0,6.898,5.616,12.51,12.52,12.51c0.275,0,0.541,0.099,0.749,0.278
		c2.767,2.38,6.814,3.745,11.104,3.745c2.498,0,4.986-0.511,7.396-1.521c0.144-0.061,0.294-0.089,0.443-0.089
		c0.356,0,0.703,0.166,0.926,0.468c2.747,3.737,7.133,5.969,11.731,5.969c2.347,0,4.695-0.602,6.444-1.651
		c0.287-0.174,0.635-0.211,0.954-0.105c1.078,0.36,2.341,0.55,3.649,0.55c1.659,0,3.063-0.24,4.17-0.713
		c0.258-0.109,0.547-0.123,0.813-0.033c0.332,0.11,0.711,0.166,1.127,0.166c1.573,0,3.479-0.789,5.154-1.716
		c-0.403-0.068-0.797-0.167-1.179-0.294c-0.35-0.117-0.622-0.395-0.732-0.747s-0.044-0.735,0.178-1.031
		c1.303-1.737,2.092-3.36,2.412-4.962c0.072-0.361,0.313-0.665,0.647-0.819c4.475-2.051,7.366-6.531,7.366-11.416
		C84.675,61.451,80.506,56.545,74.938,55.297z"/>
	<path fill-rule="evenodd" clip-rule="evenodd" d="M18.864,58.605c-0.061-0.04-0.118-0.087-0.172-0.141
		c-0.447-0.448-0.445-1.176,0.004-1.624c1.905-1.898,1.104-11.244-0.341-13.414c-0.163-0.243-0.284-0.252-0.364-0.258
		c-0.791-0.058-2.297,1.158-3.058,2c-0.426,0.47-1.152,0.507-1.622,0.083c-0.152-0.138-0.254-0.308-0.315-0.489
		c-0.468,0.292-0.925,0.608-1.353,0.956l5.754,13.658C17.905,59.22,18.394,58.962,18.864,58.605z"/>
	<path fill-rule="evenodd" clip-rule="evenodd" d="M62.844,56.906c-0.741,0-1.521-0.033-2.339-0.086
		c1.379,0.854,2.618,2.002,3.614,3.455c0.008,0,0.017,0.001,0.025,0.002c0.245-1.104,0.497-2.271,0.75-3.479
		C64.272,56.869,63.593,56.906,62.844,56.906C62.844,56.906,62.844,56.906,62.844,56.906z"/>
	<path fill-rule="evenodd" clip-rule="evenodd" d="M44.025,55.594c-4.023,0-7.864,0.404-11.252,0.761
		c-2.813,0.295-5.243,0.551-7.37,0.551c-0.502,0-1.028-0.019-1.56-0.061c0.381,1.852,0.76,3.6,1.113,5.187
		c1.784-0.655,3.652-1.033,5.401-1.159c3.218-4.425,9.851-4.816,13.461-0.805c1.495-2.031,3.472-3.453,5.637-4.271
		c-1.694-0.12-3.444-0.203-5.234-0.203H44.025z"/>
</g>
</svg>
