<?xml version="1.0" encoding="utf-8"?>
<!-- Generator: Adobe Illustrator 15.0.0, SVG Export Plug-In . SVG Version: 6.00 Build 0)  -->
<!DOCTYPE svg PUBLIC "-//W3C//DTD SVG 1.1//EN" "http://www.w3.org/Graphics/SVG/1.1/DTD/svg11.dtd">
<svg version="1.1" id="_x32_" xmlns="http://www.w3.org/2000/svg" xmlns:xlink="http://www.w3.org/1999/xlink" x="0px" y="0px"
	 width="90.71px" height="90.71px" viewBox="0 0 90.71 90.71" enable-background="new 0 0 90.71 90.71" xml:space="preserve">
<g>
	<path d="M56.889,41.062c-0.69,0-1.183,0.239-1.504,0.729c-0.325,0.496-0.49,1.203-0.49,2.102c0,0.899,0.165,1.609,0.49,2.109
		c0.321,0.497,0.813,0.737,1.504,0.737c0.689,0,1.183-0.241,1.511-0.737c0.33-0.501,0.498-1.209,0.498-2.109
		c0-0.899-0.168-1.605-0.497-2.102C58.072,41.301,57.579,41.062,56.889,41.062z"/>
	<path d="M35.769,41.03c-0.689,0-1.18,0.27-1.501,0.762c-0.213,0.324-0.351,0.74-0.425,1.239h3.746
		c-0.038-0.481-0.132-0.916-0.348-1.239C36.914,41.301,36.458,41.03,35.769,41.03z"/>
	<path d="M25.448,44.2c0,0-0.672-0.111-1.425-0.122c-1.071-0.014-1.527,0.381-1.523,0.38c-0.316,0.223-0.468,0.555-0.468,1.017
		c0,0.291,0.053,0.522,0.156,0.683c0.07,0.105,0.098,0.147,0.303,0.311c-0.004-0.001,0.471,0.372,1.54,0.307
		c0.751-0.045,1.418-0.188,1.418-0.188h-0.001V44.2z"/>
	<path d="M71.064,22.712c-2.813,0-5.486,0.6-7.901,1.68c-2.778-4.952-7.997-8.287-13.979-8.287c-4.499,0-8.568,1.888-11.49,4.933
		c-3.215-4.204-8.286-6.917-13.992-6.917c-9.72,0-17.599,7.868-17.599,17.575c0,2.484,0.517,4.848,1.448,6.989
		c-4.52,2.642-7.563,7.58-7.563,13.236c0,8.439,6.771,15.28,15.124,15.28c1.066,0,2.105-0.111,3.108-0.324
		c2.294,6.226,8.273,10.664,15.289,10.664c6.736,0,12.517-4.092,14.997-9.927c1.887,0.92,4.007,1.438,6.247,1.438
		c5.352,0,10.016-2.948,12.464-7.313c1.266,0.255,2.555,0.384,3.848,0.384c10.787,0,19.533-8.822,19.533-19.707
		C90.597,31.534,81.851,22.712,71.064,22.712z M19.39,45.581c0,1.592-1.153,2.58-3.012,2.58c-0.913,0-1.785-0.143-2.709-0.634
		c-0.174-0.099-0.348-0.188-0.518-0.312c-0.018-0.027-0.096-0.059-0.039-0.207l0.366-1.017c0.058-0.175,0.191-0.117,0.244-0.083
		c0.101,0.061,0.177,0.116,0.308,0.192c1.08,0.684,2.081,0.689,2.394,0.689c0.808,0,1.309-0.43,1.309-1.005v-0.03
		c0-0.63-0.771-0.866-1.666-1.142l-0.197-0.061c-1.228-0.351-2.538-0.854-2.538-2.407v-0.031c0-1.472,1.188-2.5,2.889-2.5
		l0.186-0.001c0.999,0,1.965,0.291,2.663,0.715c0.063,0.039,0.125,0.111,0.091,0.209c-0.033,0.09-0.343,0.924-0.378,1.017
		c-0.066,0.174-0.246,0.058-0.246,0.058c-0.612-0.338-1.562-0.604-2.362-0.604c-0.721,0-1.185,0.382-1.185,0.901v0.032
		c0,0.606,0.795,0.865,1.716,1.165l0.159,0.052c1.223,0.385,2.525,0.92,2.525,2.392V45.581z M27,47.648
		c-0.122,0.033-0.245,0.065-0.367,0.096c-0.176,0.039-0.809,0.167-1.324,0.256c-0.521,0.088-1.057,0.132-1.595,0.132
		c-0.511,0-0.979-0.048-1.39-0.141c-0.418-0.095-0.778-0.251-1.07-0.464c-0.294-0.213-0.525-0.489-0.685-0.821
		c-0.16-0.329-0.241-0.734-0.241-1.199c0-0.457,0.095-0.865,0.28-1.211c0.184-0.343,0.444-0.64,0.762-0.866
		c0.317-0.228,0.687-0.399,1.097-0.509c0.408-0.11,0.843-0.167,1.293-0.167c0.33,0,0.606,0.01,0.819,0.025
		c0,0,0.414,0.038,0.866,0.102v-0.222c0-0.7-0.145-1.032-0.432-1.25c-0.294-0.226-0.73-0.339-1.298-0.339
		c0,0-1.278-0.017-2.289,0.532c-0.046,0.027-0.086,0.043-0.086,0.043s-0.125,0.044-0.172-0.085l-0.372-0.999
		c-0.057-0.145,0.046-0.21,0.046-0.21c0.472-0.368,1.62-0.591,1.62-0.591c0.379-0.076,1.013-0.13,1.407-0.13
		c1.049,0,1.861,0.244,2.413,0.727c0.553,0.484,0.835,1.265,0.835,2.318l0.002,4.802C27.121,47.477,27.131,47.617,27,47.648z
		 M30.526,47.801c0,0.088-0.063,0.159-0.151,0.159h-1.393c-0.088,0-0.149-0.071-0.149-0.159V36.592c0-0.087,0.062-0.159,0.149-0.159
		h1.393c0.088,0,0.151,0.071,0.151,0.159V47.801z M39.223,44.195c-0.014,0.134-0.152,0.136-0.152,0.136l-5.252-0.005
		c0.034,0.798,0.224,1.363,0.612,1.749c0.378,0.376,0.982,0.614,1.795,0.616c1.249,0.002,1.781-0.248,2.157-0.387
		c0,0,0.146-0.054,0.199,0.09l0.342,0.962c0.07,0.163,0.014,0.219-0.043,0.251c-0.33,0.182-1.128,0.521-2.645,0.525
		c-0.738,0.001-1.379-0.104-1.907-0.309c-0.532-0.204-0.976-0.499-1.32-0.874c-0.346-0.374-0.602-0.823-0.762-1.336
		c-0.159-0.507-0.238-1.07-0.238-1.676c0-0.595,0.079-1.159,0.231-1.676c0.152-0.52,0.393-0.978,0.711-1.363
		c0.319-0.386,0.725-0.696,1.209-0.923c0.483-0.228,1.08-0.336,1.734-0.336c0.562,0,1.076,0.121,1.505,0.304
		c0.327,0.142,0.658,0.396,0.997,0.76c0.214,0.229,0.54,0.732,0.671,1.229C39.403,43.116,39.228,44.138,39.223,44.195z
		 M40.878,47.527c-0.174-0.099-0.347-0.188-0.518-0.312c-0.018-0.027-0.095-0.059-0.039-0.207l0.367-1.017
		c0.054-0.166,0.211-0.104,0.245-0.083c0.098,0.063,0.175,0.116,0.306,0.192c1.081,0.684,2.081,0.689,2.395,0.689
		c0.808,0,1.31-0.43,1.31-1.005v-0.03c0-0.63-0.772-0.866-1.667-1.142l-0.198-0.061c-1.227-0.351-2.537-0.854-2.537-2.407v-0.031
		c0-1.472,1.188-2.5,2.889-2.5l0.186-0.001c0.999,0,1.965,0.291,2.663,0.715c0.063,0.039,0.125,0.111,0.09,0.209
		c-0.031,0.09-0.341,0.924-0.377,1.017c-0.066,0.174-0.246,0.058-0.246,0.058c-0.611-0.338-1.562-0.604-2.362-0.604
		c-0.72,0-1.185,0.382-1.185,0.901v0.032c0,0.606,0.795,0.865,1.717,1.165l0.159,0.052c1.223,0.385,2.525,0.92,2.525,2.392v0.031
		c0,1.592-1.154,2.58-3.013,2.58C42.675,48.161,41.802,48.018,40.878,47.527z M52.761,41.061c-0.03,0.159-0.176,0.154-0.176,0.154
		h-1.73l-1.183,6.693c-0.124,0.694-0.28,1.288-0.463,1.765c-0.184,0.483-0.376,0.838-0.682,1.177
		c-0.283,0.312-0.604,0.542-0.97,0.676c-0.365,0.131-0.807,0.199-1.289,0.199c-0.231,0-0.479-0.003-0.77-0.072
		c-0.211-0.05-0.325-0.086-0.481-0.142c-0.065-0.022-0.116-0.104-0.08-0.208c0.037-0.104,0.346-0.956,0.388-1.068
		c0.056-0.136,0.191-0.085,0.191-0.085c0.094,0.041,0.16,0.068,0.284,0.094c0.125,0.024,0.293,0.045,0.42,0.045
		c0.229,0,0.438-0.028,0.618-0.089c0.22-0.073,0.346-0.2,0.48-0.37c0.139-0.179,0.252-0.423,0.366-0.747
		c0.117-0.331,0.225-0.766,0.314-1.295l1.177-6.572h-1.159c-0.139,0-0.184-0.066-0.17-0.169l0.193-1.093
		c0.031-0.158,0.176-0.153,0.176-0.153h1.193l0.064-0.354c0.178-1.055,0.533-1.856,1.056-2.383c0.525-0.529,1.273-0.798,2.224-0.798
		c0.272,0,0.513,0.019,0.714,0.054c0.199,0.038,0.352,0.073,0.519,0.124c0.036,0.014,0.139,0.065,0.098,0.183l-0.402,1.103
		c-0.033,0.083-0.056,0.133-0.229,0.082c-0.042-0.013-0.105-0.031-0.268-0.066c-0.118-0.024-0.273-0.042-0.432-0.042
		c-0.207,0-0.397,0.026-0.563,0.08c-0.164,0.052-0.313,0.144-0.441,0.273c-0.131,0.132-0.286,0.324-0.368,0.56
		c-0.191,0.557-0.269,1.147-0.277,1.185h1.679c0.141,0,0.185,0.065,0.172,0.169L52.761,41.061z M60.45,45.56
		c-0.153,0.515-0.391,0.97-0.707,1.348c-0.317,0.38-0.717,0.684-1.191,0.898c-0.476,0.216-1.034,0.325-1.662,0.325
		c-0.63,0-1.189-0.109-1.664-0.325c-0.474-0.215-0.875-0.519-1.191-0.898c-0.318-0.379-0.554-0.833-0.707-1.348
		c-0.151-0.511-0.228-1.072-0.228-1.667c0-0.596,0.076-1.155,0.228-1.668c0.153-0.513,0.391-0.968,0.706-1.348
		c0.317-0.379,0.718-0.684,1.192-0.906c0.474-0.221,1.034-0.333,1.664-0.333c0.628,0,1.188,0.113,1.662,0.333
		c0.476,0.222,0.874,0.527,1.191,0.906c0.316,0.378,0.554,0.833,0.705,1.348c0.152,0.513,0.229,1.074,0.229,1.668
		S60.6,45.048,60.45,45.56z M66.545,41.175c-0.034,0.092-0.092,0.154-0.19,0.142c0,0-0.303-0.07-0.579-0.07
		c-0.19,0-0.46,0.024-0.703,0.099c-0.239,0.073-0.458,0.204-0.65,0.39c-0.19,0.187-0.345,0.448-0.458,0.773
		c-0.117,0.33-0.175,0.854-0.175,1.379v3.914c0,0.087-0.07,0.159-0.159,0.159H62.25c-0.087,0-0.159-0.072-0.159-0.159v-7.834
		c0-0.089,0.063-0.16,0.15-0.16h1.347c0.088,0,0.151,0.07,0.151,0.16v0.639c0.201-0.27,0.563-0.508,0.889-0.655
		c0.327-0.147,0.694-0.258,1.354-0.218c0.345,0.022,0.791,0.116,0.88,0.151c0.035,0.013,0.118,0.069,0.079,0.188
		C66.891,40.216,66.634,40.936,66.545,41.175z M73.506,47.736c-0.586,0.23-1.401,0.392-2.196,0.392
		c-1.345,0-2.377-0.389-3.063-1.153c-0.687-0.762-1.032-1.801-1.032-3.088c0-0.595,0.084-1.158,0.252-1.67
		c0.169-0.514,0.423-0.968,0.755-1.348c0.333-0.379,0.753-0.684,1.25-0.904c0.497-0.222,1.076-0.333,1.729-0.333
		c0.437,0,0.83,0.027,1.165,0.078c0.358,0.054,0.833,0.183,1.034,0.261c0.037,0.014,0.138,0.065,0.097,0.182
		c-0.145,0.414-0.246,0.684-0.381,1.061c-0.059,0.161-0.181,0.107-0.181,0.107c-0.512-0.162-0.999-0.234-1.64-0.234
		c-0.767,0-1.345,0.256-1.722,0.757c-0.381,0.503-0.593,1.164-0.596,2.043c-0.002,0.966,0.238,1.679,0.667,2.121
		c0.428,0.442,1.023,0.664,1.774,0.664c0.306,0,0.591-0.021,0.851-0.06c0.255-0.04,0.495-0.119,0.722-0.207
		c0,0,0.146-0.057,0.197,0.095l0.381,1.051C73.619,47.68,73.506,47.736,73.506,47.736z M81.284,44.195
		c-0.014,0.134-0.152,0.136-0.152,0.136l-5.253-0.005c0.033,0.798,0.224,1.363,0.612,1.749c0.378,0.376,0.982,0.614,1.797,0.616
		c1.245,0.002,1.78-0.248,2.155-0.387c0,0,0.146-0.054,0.197,0.09l0.344,0.962c0.07,0.163,0.015,0.219-0.044,0.251
		c-0.329,0.182-1.128,0.521-2.645,0.525c-0.736,0.001-1.378-0.104-1.906-0.309c-0.531-0.204-0.977-0.499-1.32-0.874
		c-0.347-0.374-0.602-0.823-0.763-1.336c-0.158-0.507-0.237-1.07-0.237-1.676c0-0.595,0.077-1.159,0.229-1.676
		c0.152-0.52,0.394-0.978,0.712-1.363c0.319-0.386,0.725-0.696,1.209-0.923c0.483-0.228,1.078-0.336,1.734-0.336
		c0.562,0,1.076,0.121,1.505,0.304c0.327,0.142,0.657,0.396,0.996,0.76c0.215,0.229,0.541,0.732,0.673,1.229
		C81.464,43.116,81.288,44.138,81.284,44.195z"/>
	<path d="M77.83,41.03c-0.689,0-1.18,0.27-1.502,0.762c-0.213,0.324-0.351,0.74-0.424,1.239h3.746
		c-0.038-0.481-0.133-0.916-0.35-1.239C78.974,41.301,78.518,41.03,77.83,41.03z"/>
</g>
</svg>
