<?xml version="1.0" encoding="utf-8"?>
<!-- Generator: Adobe Illustrator 15.1.0, SVG Export Plug-In . SVG Version: 6.00 Build 0)  -->
<!DOCTYPE svg PUBLIC "-//W3C//DTD SVG 1.1//EN" "http://www.w3.org/Graphics/SVG/1.1/DTD/svg11.dtd">
<svg version="1.1" id="_x32_" xmlns="http://www.w3.org/2000/svg" xmlns:xlink="http://www.w3.org/1999/xlink" x="0px" y="0px"
	 width="90.71px" height="90.71px" viewBox="0 0 90.71 90.71" enable-background="new 0 0 90.71 90.71" xml:space="preserve">
<g>
	<path d="M74.265,12.794H16.446c-8.071,0-14.615,6.544-14.615,14.615V63.3c0,8.072,6.544,14.615,14.615,14.615h57.819
		c8.072,0,14.614-6.543,14.614-14.615V27.409C88.879,19.338,82.337,12.794,74.265,12.794z M32.897,33.137
		c0,0.384-0.302,0.702-0.687,0.72l-3.058,0.141c-0.279,0.012-0.526,0.186-0.632,0.443l-0.63,1.517
		c-0.107,0.259-0.055,0.556,0.134,0.762l2.063,2.262c0.258,0.286,0.249,0.725-0.023,0.997l-2.542,2.543
		c-0.273,0.272-0.711,0.282-0.996,0.023l-2.262-2.063c-0.207-0.189-0.504-0.241-0.763-0.134l-1.516,0.628
		c-0.259,0.107-0.431,0.354-0.443,0.634l-0.142,3.057c-0.018,0.384-0.335,0.688-0.72,0.688h-3.598c-0.384,0-0.702-0.304-0.72-0.688
		l-0.141-3.057c-0.012-0.28-0.185-0.526-0.443-0.634l-1.516-0.628c-0.259-0.107-0.557-0.055-0.763,0.134l-2.262,2.063
		c-0.286,0.259-0.723,0.249-0.995-0.023L7.7,39.978c-0.272-0.272-0.282-0.71-0.022-0.997L9.74,36.72
		c0.189-0.206,0.239-0.502,0.132-0.762l-0.628-1.517c-0.107-0.257-0.353-0.431-0.633-0.443l-3.057-0.141
		c-0.384-0.018-0.688-0.336-0.688-0.72V29.54c0-0.385,0.303-0.703,0.688-0.72l3.057-0.141c0.28-0.012,0.526-0.186,0.633-0.444
		l0.628-1.516c0.107-0.259,0.057-0.555-0.132-0.762l-2.062-2.263c-0.259-0.284-0.25-0.723,0.023-0.995l2.541-2.543
		c0.273-0.272,0.712-0.282,0.997-0.022l2.263,2.063c0.206,0.188,0.503,0.241,0.763,0.133l1.516-0.629
		c0.258-0.107,0.431-0.354,0.443-0.633l0.141-3.057c0.018-0.385,0.336-0.688,0.72-0.688h3.597c0.384,0,0.702,0.303,0.72,0.688
		l0.142,3.057c0.013,0.28,0.185,0.526,0.443,0.633l1.516,0.629c0.258,0.107,0.555,0.055,0.762-0.133l2.262-2.063
		c0.285-0.26,0.723-0.249,0.997,0.022l2.542,2.543c0.271,0.272,0.281,0.711,0.023,0.995l-2.063,2.263
		c-0.189,0.207-0.24,0.503-0.134,0.762l0.63,1.516c0.106,0.258,0.353,0.432,0.632,0.444l3.058,0.141
		c0.384,0.017,0.687,0.335,0.687,0.72V33.137z"/>
	<circle cx="18.882" cy="31.339" r="4.578"/>
</g>
</svg>
