<?xml version="1.0" encoding="utf-8"?>
<!-- Generator: Adobe Illustrator 15.0.0, SVG Export Plug-In . SVG Version: 6.00 Build 0)  -->
<!DOCTYPE svg PUBLIC "-//W3C//DTD SVG 1.1//EN" "http://www.w3.org/Graphics/SVG/1.1/DTD/svg11.dtd">
<svg version="1.1" id="_x32_" xmlns="http://www.w3.org/2000/svg" xmlns:xlink="http://www.w3.org/1999/xlink" x="0px" y="0px"
	 width="90.71px" height="90.71px" viewBox="0 0 90.71 90.71" enable-background="new 0 0 90.71 90.71" xml:space="preserve">
<g>
	<path d="M77.533,41.102c-1.574,0-1.41,1.938-1.475,4.007h2.627C78.685,42.776,78.685,41.102,77.533,41.102z"/>
	<path d="M0,0v90.71h90.71V0H0z M47.179,29.341c1.74,0,3.088,1.413,3.088,3.121c0,1.709-1.348,3.121-3.088,3.121
		c-1.742,0-3.089-1.412-3.089-3.121C44.09,30.754,45.438,29.341,47.179,29.341z M11.467,55.457c-1.807,0-3.712-0.427-4.993-0.821
		v-4.5c1.116,0.296,3.054,0.755,3.909,0.755c0.953,0,1.675-0.131,1.675-0.986c0-0.656-0.459-0.951-1.478-1.41l-0.789-0.362
		c-1.479-0.69-3.581-1.872-3.581-5.058c0-4.666,3.646-5.684,6.701-5.684c2.299,0,3.811,0.526,4.599,0.821v4.368
		c-0.92-0.295-2.792-0.689-3.909-0.689c-0.755-0.001-1.314,0.196-1.314,0.854c0,0.688,0.461,0.92,1.544,1.412l0.657,0.295
		c1.543,0.689,3.679,1.807,3.679,5.092C18.168,54.799,14.26,55.457,11.467,55.457z M28.419,50.725c0.395,0,1.774-0.196,2.234-0.263
		v4.435c-0.953,0.229-3.055,0.56-4.434,0.56c-1.774,0-5.092-0.198-5.092-5.026v-8.737h-2.3v-3.975h2.3l0.788-3.942l5.453-1.313
		v5.255h3.285l-0.82,3.975h-2.464v7.622C27.368,50.496,27.729,50.725,28.419,50.725z M42.578,42.94
		c-0.624-0.164-1.445-0.328-2.299-0.328c-0.985,0-1.741,0.395-2.07,0.591v11.924h-6.241v-17.41h4.96l0.919,1.675
		c0.361-1.083,1.348-2.003,2.793-2.003c0.985,0,1.642,0.197,1.937,0.361V42.94z M50.3,55.127h-6.242v-17.41H50.3V55.127z
		 M61.371,55.457c-0.789,0-1.611-0.23-2.203-0.362v6.274h-6.238V37.718h5.057l0.92,1.084c0.951-0.854,2.299-1.413,3.713-1.413
		c2.563,0,5.586,0.722,5.586,8.935C68.205,55.326,63.671,55.457,61.371,55.457z M84.498,48.492h-8.439
		c0,1.873,0.918,2.233,2.461,2.233c1.775,0,4.172-0.526,5.092-0.689v4.534c-0.723,0.262-2.922,0.887-5.092,0.887
		c-3.908,0-8.672-0.625-8.672-8.968c0-7.359,3.744-9.099,7.686-9.099c4.041,0,6.965,2.069,6.965,9.033V48.492z"/>
	<path d="M60.646,41.988c-0.361,0-1.082,0.296-1.475,0.526v8.41c0.293,0.099,0.82,0.163,1.051,0.163c1.082,0,1.738-0.92,1.738-4.762
		C61.96,42.416,61.664,41.988,60.646,41.988z"/>
</g>
</svg>
