<?xml version="1.0" encoding="utf-8"?>
<!-- Generator: Adobe Illustrator 15.0.0, SVG Export Plug-In . SVG Version: 6.00 Build 0)  -->
<!DOCTYPE svg PUBLIC "-//W3C//DTD SVG 1.1//EN" "http://www.w3.org/Graphics/SVG/1.1/DTD/svg11.dtd">
<svg version="1.1" id="_x32_" xmlns="http://www.w3.org/2000/svg" xmlns:xlink="http://www.w3.org/1999/xlink" x="0px" y="0px"
	 width="90.71px" height="90.71px" viewBox="0 0 90.71 90.71" enable-background="new 0 0 90.71 90.71" xml:space="preserve">
<path d="M82.042,40.506c-1.798,0-1.609,2.209-1.685,4.568h2.996C83.353,42.416,83.353,40.506,82.042,40.506L82.042,40.506z
	 M80.357,48.931c0,2.135,1.049,2.547,2.809,2.547c2.022,0,4.756-0.6,5.805-0.787v5.169c-0.824,0.3-3.333,1.011-5.805,1.011
	c-4.456,0-9.887-0.711-9.887-10.223c0-8.39,4.269-10.374,8.763-10.374c4.606,0,7.939,2.359,7.939,10.298v2.359H80.357L80.357,48.931
	z M62.791,41.517c-0.412,0-1.236,0.337-1.685,0.6v9.586c0.336,0.113,0.936,0.188,1.198,0.188c1.235,0,1.984-1.049,1.984-5.43
	C64.289,42.003,63.951,41.517,62.791,41.517L62.791,41.517z M63.614,56.871c-0.898,0-1.835-0.262-2.509-0.412v7.153H53.99V36.648
	h5.767l1.049,1.236c1.086-0.974,2.622-1.61,4.232-1.61c2.921,0,6.366,0.824,6.366,10.187C71.404,56.722,66.236,56.871,63.614,56.871
	L63.614,56.871z M47.435,34.214c-1.985,0-3.521-1.61-3.521-3.558c0-1.947,1.536-3.558,3.521-3.558c1.984,0,3.521,1.61,3.521,3.558
	C50.956,32.604,49.419,34.214,47.435,34.214L47.435,34.214z M43.877,56.497V36.648h7.115v19.848H43.877z M39.569,42.229
	c-1.124,0-1.985,0.45-2.359,0.674v13.594h-7.115V36.648h5.655l1.048,1.91c0.412-1.236,1.536-2.285,3.184-2.285
	c1.124,0,1.873,0.225,2.209,0.412v5.917C41.479,42.416,40.542,42.229,39.569,42.229z M26.048,51.478
	c0.449,0,2.022-0.225,2.546-0.299v5.055c-1.085,0.262-3.482,0.637-5.055,0.637c-2.022,0-5.805-0.225-5.805-5.729V41.18h-2.622
	v-4.531h2.622l0.898-4.494l6.217-1.498v5.992h3.745l-0.936,4.532H24.85v8.688C24.85,51.216,25.262,51.478,26.048,51.478
	L26.048,51.478z M7.659,42.378c0,0.786,0.524,1.048,1.76,1.61l0.749,0.337c1.76,0.786,4.194,2.06,4.194,5.805
	c0,5.992-4.457,6.74-7.64,6.74c-2.06,0-4.232-0.486-5.692-0.936v-5.131c1.273,0.338,3.483,0.861,4.457,0.861
	c1.086,0,1.91-0.149,1.91-1.123c0-0.749-0.524-1.086-1.685-1.609L4.812,48.52c-1.685-0.786-4.082-2.134-4.082-5.767
	c0-5.318,4.157-6.479,7.64-6.479c2.622,0,4.344,0.599,5.243,0.937v4.98c-1.049-0.337-3.183-0.786-4.457-0.786
	C8.295,41.405,7.659,41.629,7.659,42.378L7.659,42.378z"/>
</svg>
