<?xml version="1.0" encoding="utf-8"?>
<!-- Generator: Adobe Illustrator 15.0.0, SVG Export Plug-In . SVG Version: 6.00 Build 0)  -->
<!DOCTYPE svg PUBLIC "-//W3C//DTD SVG 1.1//EN" "http://www.w3.org/Graphics/SVG/1.1/DTD/svg11.dtd">
<svg version="1.1" id="_x32_" xmlns="http://www.w3.org/2000/svg" xmlns:xlink="http://www.w3.org/1999/xlink" x="0px" y="0px"
	 width="90.71px" height="90.71px" viewBox="0 0 90.71 90.71" enable-background="new 0 0 90.71 90.71" xml:space="preserve">
<g>
	<path d="M0,0v90.71h90.71V0H0z M43.035,73.083c-5.807,0-11.931-1.369-16.047-2.637V55.982c3.586,0.951,9.815,2.428,12.563,2.428
		c3.064,0,5.385-0.424,5.385-3.168c0-2.109-1.475-3.057-4.75-4.532l-2.536-1.168c-4.754-2.216-11.51-6.014-11.51-16.254
		c0-14.997,11.719-18.27,21.539-18.27c7.389,0,12.25,1.69,14.781,2.638v14.04c-2.957-0.948-8.975-2.214-12.563-2.214
		c-2.427-0.003-4.223,0.629-4.223,2.745c0,2.211,1.482,2.957,4.962,4.539l2.111,0.948c4.959,2.214,11.825,5.809,11.825,16.368
		C64.574,70.968,52.012,73.083,43.035,73.083z"/>
</g>
</svg>
