<?xml version="1.0" encoding="utf-8"?>
<!-- Generator: Adobe Illustrator 15.1.0, SVG Export Plug-In . SVG Version: 6.00 Build 0)  -->
<!DOCTYPE svg PUBLIC "-//W3C//DTD SVG 1.1//EN" "http://www.w3.org/Graphics/SVG/1.1/DTD/svg11.dtd">
<svg version="1.1" id="_x32_" xmlns="http://www.w3.org/2000/svg" xmlns:xlink="http://www.w3.org/1999/xlink" x="0px" y="0px"
	 width="90.71px" height="90.71px" viewBox="0 0 90.71 90.71" enable-background="new 0 0 90.71 90.71" xml:space="preserve">
<g>
	<path d="M49.933,75.528l-1.153,2.059l2.839,5.061l-1.902,7.175h12.963c0.923-0.013,3.548-0.369,4.684-1.851
		c0.646-0.847,0.771-2,0.379-3.527c-1.475-5.735-3.059-10.153-4.677-13.556C59.272,73.39,54.789,75.042,49.933,75.528z"/>
	<path d="M73.469,39.845c-1.726-0.008-4.222-0.061-7.23-0.231c0.326,0.99,0.507,2.042,0.507,3.139c0,0.607-0.059,1.217-0.179,1.864
		l-2.271-0.425c0.095-0.504,0.14-0.975,0.14-1.439c0-1.182-0.271-2.3-0.747-3.304c-2.68-0.196-5.649-0.483-8.803-0.91
		C53.5,38.351,52.134,38.058,50.8,37.7c-1.17,1.359-1.881,3.123-1.881,5.052c0,0.467,0.045,0.938,0.139,1.439l-2.271,0.425
		c-0.12-0.644-0.178-1.252-0.178-1.864c0-2.147,0.681-4.134,1.829-5.77c-7.143-2.418-13.07-6.617-15.471-8.471
		c-1.641,3.067-6.2,10.539-12.51,12.562c0.18,1.64,0.502,3.259,0.983,4.838l0.076,0.248l-0.039,0.256
		c-0.159,1.087-0.239,2.163-0.239,3.2c0,1.96,0.264,3.863,0.749,5.685c0.168,0.631,0.365,1.252,0.586,1.863
		c0.013,0.031,0.025,0.065,0.036,0.097c0.677,1.839,1.591,3.572,2.707,5.177c0.024,0.037,0.049,0.071,0.073,0.106
		c0.364,0.518,0.748,1.021,1.154,1.51c0.023,0.027,0.047,0.055,0.07,0.084c0.82,0.979,1.722,1.896,2.694,2.747
		c0.043,0.037,0.086,0.076,0.13,0.113c0.468,0.403,0.955,0.791,1.456,1.163c0.063,0.045,0.126,0.091,0.19,0.137
		c0.509,0.372,1.032,0.728,1.573,1.065c0.016,0.009,0.033,0.018,0.049,0.027c0.535,0.331,1.085,0.64,1.646,0.933
		c0.058,0.029,0.116,0.063,0.174,0.092c0.548,0.281,1.112,0.542,1.685,0.786c0.1,0.041,0.2,0.085,0.301,0.126
		c0.572,0.233,1.154,0.453,1.748,0.652c0.074,0.024,0.152,0.047,0.227,0.069c0.585,0.19,1.18,0.36,1.784,0.511
		c0.052,0.014,0.103,0.028,0.155,0.041c0.617,0.148,1.245,0.271,1.878,0.378c0.119,0.021,0.238,0.042,0.358,0.062
		c0.623,0.097,1.254,0.173,1.892,0.229c0.112,0.008,0.227,0.015,0.339,0.022c0.67,0.049,1.341,0.081,2.023,0.081
		c0.61,0,1.212-0.028,1.812-0.067c0.139-0.007,0.278-0.018,0.418-0.028c0.588-0.048,1.174-0.107,1.748-0.192
		c0.06-0.007,0.116-0.019,0.177-0.028c0.535-0.081,1.063-0.18,1.586-0.29c0.125-0.025,0.248-0.052,0.37-0.078
		c0.562-0.128,1.115-0.271,1.661-0.431c0.08-0.022,0.155-0.048,0.235-0.073c0.499-0.15,0.991-0.317,1.479-0.496
		c0.092-0.035,0.185-0.067,0.278-0.103c0.533-0.203,1.059-0.423,1.574-0.661c0.077-0.035,0.153-0.073,0.229-0.108
		c0.486-0.229,0.967-0.469,1.432-0.724c0.05-0.027,0.099-0.052,0.147-0.078c0.505-0.281,0.999-0.578,1.482-0.889
		c0.063-0.041,0.126-0.082,0.189-0.123c0.978-0.643,1.905-1.345,2.774-2.102c0.045-0.039,0.088-0.078,0.132-0.118
		c0.879-0.777,1.699-1.607,2.45-2.492c0.026-0.03,0.054-0.062,0.079-0.091c0.761-0.904,1.453-1.859,2.07-2.859
		c0.011-0.019,0.021-0.035,0.034-0.053c0.623-1.021,1.169-2.085,1.625-3.188c1.096-2.637,1.699-5.496,1.699-8.483
		c0-1.034-0.082-2.115-0.241-3.212l-0.036-0.256l0.076-0.247C72.997,43.933,73.339,41.9,73.469,39.845z M46.882,50
		c1.323,0,2.587,0.414,3.661,1.196l-1.361,1.864c-0.675-0.49-1.469-0.751-2.3-0.751c-2.154,0-3.907,1.753-3.907,3.906
		c0,1.023,0.395,1.991,1.111,2.723l-1.652,1.616c-1.14-1.171-1.768-2.71-1.768-4.34C40.667,52.789,43.454,50,46.882,50z
		 M36.052,49.729c-1.434,0-2.597-1.162-2.597-2.597c0-1.434,1.163-2.595,2.597-2.595s2.595,1.162,2.595,2.595
		C38.647,48.567,37.485,49.729,36.052,49.729z M46.916,70.305l-7.687-4.907h15.336L46.916,70.305z M56.786,49.729
		c-1.433,0-2.596-1.162-2.596-2.597c0-1.434,1.163-2.595,2.596-2.595c1.434,0,2.597,1.162,2.597,2.595
		C59.382,48.567,58.219,49.729,56.786,49.729z"/>
	<path d="M61.851,36.984c-1.376-1.235-3.185-1.992-5.173-1.992c-1.298,0-2.52,0.323-3.595,0.888c0.7,0.148,1.405,0.272,2.114,0.368
		C57.534,36.564,59.763,36.802,61.851,36.984z"/>
	<path d="M43.815,75.517c-4.79-0.495-9.214-2.119-12.967-4.579c-1.606,3.396-3.181,7.798-4.646,13.506
		c-0.393,1.531-0.267,2.688,0.386,3.533c1.365,1.772,4.644,1.845,4.677,1.845h12.797l-1.912-7.175l2.829-5.061L43.815,75.517z"/>
	<path d="M18.188,41.545c-0.061,0.005-0.12,0.021-0.18,0.026l-0.017-0.221c-0.982,1.07-1.622,2.75-1.622,4.646
		c0,2.434,1.114,4.553,2.633,5.418c-0.043-0.596-0.074-1.194-0.074-1.799c0-1.067,0.076-2.169,0.228-3.28
		C18.693,44.77,18.376,43.167,18.188,41.545z"/>
	<path d="M75.75,40.453c-0.153,1.991-0.505,3.958-1.069,5.875c0.133,0.97,0.194,1.924,0.214,2.857c0-0.002,0-0.002,0-0.002
		c0.002,0.144,0.016,0.29,0.016,0.433c0,0.745-0.042,1.482-0.109,2.21c2.079-0.243,3.778-2.811,3.78-5.829
		C78.581,43.455,77.375,41.237,75.75,40.453z"/>
	<path d="M76.05,38.094c0.158,0.051,0.313,0.106,0.469,0.172c2.238-9.809,1.466-18.101-2.406-24.458
		c-5.808-9.537-17.46-12.92-25.672-12.92c-2.229,0-4.331,0.24-6.079,0.694C31.509,4.4,31.397,11.478,31.397,11.779l0.003,1.907
		l-1.861-0.401c-0.007-0.002-1.062-0.228-2.541-0.228c-3.869,0-8.708,1.453-9.798,8.37c-0.845,5.359-0.367,11.417,0.774,17.056
		c0.37-0.2,0.755-0.361,1.157-0.472c0,0.041-0.003,0.08-0.003,0.12c0,0.31,0.03,0.611,0.041,0.918
		c7.152-1.746,12.31-12.7,12.363-12.817l0.639-1.378l1.157,0.983c0.088,0.076,7.63,6.411,16.816,9.266
		c1.761-1.507,4.041-2.423,6.536-2.423c3.514,0,6.609,1.814,8.41,4.551c6.497,0.425,10.875,0.283,10.941,0.281L76.05,38.094z"/>
</g>
</svg>
