<!--?xml version="1.0" encoding="utf-8"?-->
<!-- Generator: Adobe Illustrator 18.1.1, SVG Export Plug-In . SVG Version: 6.00 Build 0)  -->

<svg version="1.1" id="_x32_" xmlns="http://www.w3.org/2000/svg" xmlns:xlink="http://www.w3.org/1999/xlink" x="0px" y="0px" viewBox="0 0 512 512" style="width: 256px; height: 256px; opacity: 1;" xml:space="preserve">
<style type="text/css">
	.st0{fill:#4B4B4B;}
</style>
<g>
	<path class="st0" d="M118.612,89.297c9.482,0,17.176-7.686,17.176-17.168v-54.96C135.789,7.686,128.094,0,118.612,0
		c-9.483,0-17.176,7.686-17.176,17.169v54.96C101.436,81.611,109.129,89.297,118.612,89.297z" style="fill: rgb(75, 75, 75);"></path>
	<path class="st0" d="M255.992,89.297c9.482,0,17.176-7.686,17.176-17.168v-54.96C273.169,7.686,265.475,0,255.992,0
		c-9.483,0-17.169,7.686-17.169,17.169v54.96C238.823,81.611,246.509,89.297,255.992,89.297z" style="fill: rgb(75, 75, 75);"></path>
	<path class="st0" d="M424.287,44.899v27.229c0,17.038-13.862,30.907-30.914,30.907c-17.038,0-30.907-13.87-30.907-30.907V44.899
		h-75.559v27.229c0,17.038-13.869,30.907-30.914,30.907c-17.038,0-30.906-13.87-30.906-30.907V44.899h-75.559v27.229
		c0,17.038-13.87,30.907-30.914,30.907c-17.038,0-30.914-13.87-30.914-30.907V44.899H17.867V512h476.266V44.899H424.287z
		 M466.65,484.524H45.342V127.327H466.65V484.524z" style="fill: rgb(75, 75, 75);"></path>
	<path class="st0" d="M393.373,89.297c9.49,0,17.176-7.686,17.176-17.168v-54.96C410.549,7.686,402.863,0,393.373,0
		c-9.482,0-17.168,7.686-17.168,17.169v54.96C376.204,81.611,383.89,89.297,393.373,89.297z" style="fill: rgb(75, 75, 75);"></path>
	<path class="st0" d="M186.917,399.15c32.102,0,56.032-21.571,56.032-54.188c0-23.421-13.152-38.94-23.668-43.411v-0.525
		c13.152-8.681,19.983-22.103,19.983-37.097c0-28.941-19.196-49.455-52.608-49.455c-28.941,0-48.677,16.575-52.624,38.146
		c-0.262,1.572,0.524,2.891,2.112,3.153l22.357,5.265c1.588,0.262,2.636-0.262,3.161-1.842
		c3.161-11.047,10.793-18.418,23.945-18.418c14.986,0,23.929,9.999,23.929,24.207c0,15.781-10.253,26.042-26.042,26.042h-7.108
		c-1.572,0-2.621,1.049-2.621,2.63v20.784c0,1.58,1.048,2.629,2.621,2.629h7.632c17.623,0,29.203,11.055,29.203,29.203
		c0,15.264-9.729,26.574-26.304,26.574c-14.74,0-23.421-8.419-27.106-18.942c-0.524-1.58-1.835-2.104-3.145-1.842l-22.897,5.266
		c-1.572,0.524-2.359,1.834-2.097,3.415C137.191,385.212,159.024,399.15,186.917,399.15z" style="fill: rgb(75, 75, 75);"></path>
	<path class="st0" d="M297.16,271.823l27.352-19.204h0.524V393.63c0,1.58,1.064,2.629,2.636,2.629h24.208
		c1.572,0,2.621-1.048,2.621-2.629V219.994c0-1.573-1.048-2.629-2.621-2.629h-22.373c-2.097,0-3.407,0.524-4.734,1.58
		l-28.664,20.784c-1.325,1.048-1.85,2.105-1.85,3.677v26.836C294.261,272.347,295.572,272.872,297.16,271.823z" style="fill: rgb(75, 75, 75);"></path>
</g>
</svg>
