<?xml version="1.0" encoding="utf-8"?>
<!-- Generator: Adobe Illustrator 15.1.0, SVG Export Plug-In . SVG Version: 6.00 Build 0)  -->
<!DOCTYPE svg PUBLIC "-//W3C//DTD SVG 1.1//EN" "http://www.w3.org/Graphics/SVG/1.1/DTD/svg11.dtd">
<svg version="1.1" id="レイヤー_1" xmlns="http://www.w3.org/2000/svg" xmlns:xlink="http://www.w3.org/1999/xlink" x="0px"
	 y="0px" width="595.279px" height="595.281px" viewBox="0 0 595.279 595.281" enable-background="new 0 0 595.279 595.281"
	 xml:space="preserve">
<g>
	<path fill="#4B4B4B" d="M61.971,350.538c29.621,0,53.579-24.002,53.579-53.605c0-29.604-23.958-53.607-53.579-53.607
		c-29.612,0-53.606,24.003-53.606,53.607C8.365,326.536,32.359,350.538,61.971,350.538z"/>
	<path fill="#4B4B4B" d="M61.916,368.812c-28.83,0-52.353,23.366-52.353,52.335v65.073h62.015l40.01-81.727
		C104.727,383.641,85.145,368.812,61.916,368.812z"/>
	<path fill="#4B4B4B" d="M149.656,248.051c26.527,0,47.997-21.48,47.997-48.024c0-26.499-21.47-48.016-47.997-48.016
		c-26.526,0-48.015,21.517-48.015,48.016C101.642,226.572,123.131,248.051,149.656,248.051z"/>
	<path fill="#4B4B4B" d="M102.636,359.296v10.345h26.02l47.582-96.971c-7.551-5.323-16.652-8.252-26.582-8.252
		c-6.714,0-13.153,1.391-18.891,3.915c3.639,8.823,5.738,18.468,5.738,28.553C136.504,323.053,123.065,345.997,102.636,359.296z"/>
	<path fill="#4B4B4B" d="M291.98,155.069c26.526,0,48.006-21.479,48.006-48.024c0-26.499-21.479-48.016-48.006-48.016
		c-26.527,0-48.015,21.518-48.015,48.016C243.965,133.589,265.454,155.069,291.98,155.069z"/>
	<path fill="#4B4B4B" d="M291.98,171.399c-25.929,0-46.983,21.028-46.983,46.993v20.364h93.958v-20.364
		C338.954,192.427,317.937,171.399,291.98,171.399z"/>
	<path fill="#4B4B4B" d="M533.308,350.538c29.612,0,53.606-24.002,53.606-53.605c0-29.604-23.994-53.607-53.606-53.607
		c-29.631,0-53.578,24.003-53.578,53.607C479.73,326.536,503.678,350.538,533.308,350.538z"/>
	<path fill="#4B4B4B" d="M533.364,368.812c-23.229,0-42.812,14.828-49.673,35.682l40.012,81.727h62.016v-65.073
		C585.718,392.179,562.194,368.812,533.364,368.812z"/>
	<path fill="#4B4B4B" d="M445.624,248.051c26.517,0,48.015-21.48,48.015-48.024c0-26.499-21.498-48.016-48.015-48.016
		c-26.528,0-47.997,21.517-47.997,48.016C397.626,226.572,419.096,248.051,445.624,248.051z"/>
	<path fill="#4B4B4B" d="M445.624,264.418c-9.93,0-19.03,2.929-26.592,8.252l47.591,96.971h26.021v-10.345
		c-20.431-13.301-33.868-36.243-33.868-62.411c0-10.085,2.099-19.729,5.738-28.553C458.777,265.81,452.339,264.418,445.624,264.418z
		"/>
</g>
<path fill="#4B4B4B" d="M387.872,256.819H207.407L83.442,509.791v26.462H511.84v-26.462L387.872,256.819z M260.202,409.275
	l-24.931,49.718h-68.685l20.008-46.67h56.7l22.841-47.414L260.202,409.275z M271.73,323.086l-18.852,39.027l-49.449,0.243
	l15.75-38.731l41.023,0.114l15.964-33.821L271.73,323.086z M317.503,289.918l15.964,33.821l41.023-0.114l15.75,38.731l-49.449-0.243
	l-18.852-39.027L317.503,289.918z M358.398,458.993l-24.931-49.718l-5.934-44.366l22.841,47.414h56.7l20.008,46.67H358.398z"/>
</svg>
