<!--?xml version="1.0" encoding="utf-8"?-->
<!-- Generator: Adobe Illustrator 18.1.1, SVG Export Plug-In . SVG Version: 6.00 Build 0)  -->

<svg version="1.1" id="_x32_" xmlns="http://www.w3.org/2000/svg" xmlns:xlink="http://www.w3.org/1999/xlink" x="0px" y="0px" viewBox="0 0 512 512" style="width: 256px; height: 256px; opacity: 1;" xml:space="preserve">
<style type="text/css">
	.st0{fill:#4B4B4B;}
</style>
<g>
	<path class="st0" d="M426.866,151.084l20.273-20.273c7.068-7.068,7.068-18.525,0.008-25.585L401.57,59.657
		c-7.068-7.077-18.516-7.069-25.584,0l-8.636,8.635c-33.981-41.412-60.135-64.82-60.135-64.82l-69.422,69.422
		c22.285,22.277,42.633,43.491,61.314,63.64l-23.127,23.136l71.155,71.146l18.656-18.657
		c86.149,103.279,114.966,162.706,114.966,162.706L512,360.983C496.634,280.137,462.736,208.554,426.866,151.084z" style="fill: rgb(75, 75, 75);"></path>
	<path class="st0" d="M6.11,446.876c-8.149,8.149-8.149,21.37,0.008,29.519l26.014,26.022c8.149,8.148,21.37,8.148,29.519,0
		l261.184-261.184L267.294,185.7L6.11,446.876z" style="fill: rgb(75, 75, 75);"></path>
</g>
</svg>
