<!--?xml version="1.0" encoding="utf-8"?-->
<!-- Generator: Adobe Illustrator 18.1.1, SVG Export Plug-In . SVG Version: 6.00 Build 0)  -->

<svg version="1.1" id="_x32_" xmlns="http://www.w3.org/2000/svg" xmlns:xlink="http://www.w3.org/1999/xlink" x="0px" y="0px" viewBox="0 0 512 512" style="width: 256px; height: 256px; opacity: 1;" xml:space="preserve">
<style type="text/css">
	.st0{fill:#4B4B4B;}
</style>
<g>
	<path class="st0" d="M511.576,361.983c-3.332-21.332-20.768-36.811-41.455-36.811c-13.548,0-26.691,6.066-35.174,16.227
		c-5.113,6.138-8.357,13.422-9.51,21.15c-0.175,0-1.176,0-1.431-0.016c-3.848-0.318-9.89-17.014-13.412-27.51
		c3.06-5.247,5.868-10.114,8.125-14.081c0.159-0.278,0.318-0.556,0.477-0.826c3.577,2.107,7.41,3.784,11.425,4.993
		c4.795,1.438,9.756,2.17,14.725,2.17c22.715,0,42.37-14.614,48.913-36.383c4.938-16.41,0.589-35.524-11.003-48.603
		c-9.716-11.163-25.101-21.125-40.16-26.015c-7.656-2.481-15.631-3.729-23.701-3.729c-18.612,0-37.638,6.869-53.716,19.161
		c-7.561-7.546-16.211-13.016-25.823-16.315c-9.558-3.276-19.178-4.946-28.584-4.946c-2.608,0-5.152,0.16-7.64,0.398
		c-1.217-3.046-2.799-5.948-4.834-8.579c-6.695-8.65-17.229-13.811-28.17-13.811h-0.731c2.306-8.658,4.453-15.957,6.361-22.008
		c11.958,11.751,28.758,18.796,46.885,18.796c36.495,0,66.182-29.688,66.182-66.182c0-21.769-12.999-44.421-32.256-56.291
		c-19.328-12.188-42.345-18.907-66.706-19.431l-2.679-0.024c-58.144,0-107.248,38.569-128.143,100.656
		c-3.013,8.937-7.267,23.534-12.975,44.485h-18.192c-16.252,0-30.436,10.996-34.506,26.73l-7.633,29.592
		c-2.735,10.59-0.366,22.08,6.336,30.73c6.592,8.499,16.88,13.636,27.63,13.794c-2.162,8.372-3.968,15.329-5.248,20.156l-1.686,6.4
		c-4.77,18.207-8.65,30.03-11.624,37.686c-10.909-8.435-24.361-13.087-38.522-13.087C28.312,340.461,0,368.773,0,403.582
		c0,30.491,21.794,54.948,55.473,62.295c0.763,0.167,1.534,0.302,2.298,0.421c9.318,1.416,18.517,2.139,27.351,2.139
		c49.175,0,89.414-21.666,117.464-62.024c0.494,11.95,5.025,23.876,13.119,32.877c9.811,11.138,25.268,21.005,40.31,25.76
		c7.506,2.369,15.322,3.578,23.216,3.578c22.294,0,44.858-9.827,62.461-26.778c18.262,17.396,41.884,26.834,67.78,26.834
		c4.73,0,9.525-0.326,14.272-0.962c60.41-8.094,86.154-64.457,88.189-98.081C512.092,367.104,511.965,364.528,511.576,361.983z
		 M217.787,253.686c-7.84,33.234-16.378,68.281-20.672,82.108c-15.281,49.167-51.075,107.883-133.994,95.282
		c-14.47-3.157-27.493-12.308-27.493-27.494c0-15.186,12.308-27.493,27.493-27.493c8.69,0,16.435,4.023,21.475,10.312
		c3.769,4.707,7.498,9.54,18.001,14.312c27.685-1.9,39.15-53.461,46.782-82.108c3.212-12.037,9.652-37.344,16.792-64.918h-45.439
		l7.641-29.601h45.542c7.537-28.534,14.9-55.4,19.384-68.734c15.751-46.79,51.553-77.338,96.426-76.384
		c17.763,0.374,34.34,5.113,48.334,13.938c9.906,6.114,15.639,17.723,15.639,26.158c0,16.872-13.676,30.555-30.556,30.555
		c-12.65,0-24.687-7.275-28.154-18.66c-6.217-20.482-25.132-28.647-35.81-14.757c-9.549,12.419-21.006,49.644-29.6,86.878
		c-1.416,6.138-3.07,13.277-4.858,21.005h45.907l-7.633,29.601H217.787z M419.013,432.411c-31.572,4.222-59.44-12.411-71.954-46.782
		c-1.089-2.997-2.106-5.828-3.108-8.586c-7.736,12.88-15.218,24.957-19.512,30.673c-13.38,17.834-36.025,30.205-57.675,23.36
		c-8.57-2.711-18.811-9.08-24.345-15.354c-3.944-4.388-5.072-10.836-3.864-14.931c2.401-8.19,10.98-12.881,19.178-10.48
		c6.138,1.797,10.948,7.037,11.003,13.056c0.112,10.828,8.126,17.483,15.297,12.26c6.393-4.658,17.254-21.11,26.723-37.965
		c5.176-9.199,13.254-23.24,20.504-35.707c-4.198-11.41-8.245-22.024-13.405-34.618c-15.631-38.195-44.842-22.914-44.842-33.417
		c0-8.801,19.734-37.026,55.274-24.822c15.48,5.311,24.632,23.598,32.066,45.128c5.199-8.428,10.2-16.164,13.938-21.078
		c13.5-17.746,36.232-29.966,57.834-22.97c8.547,2.767,18.756,9.199,24.25,15.504c3.904,4.404,5.001,10.861,3.769,14.948
		c-2.457,8.181-11.068,12.817-19.249,10.36c-6.13-1.844-10.908-7.116-10.916-13.135c-0.072-20.878-15.615-12.069-15.21-12.363
		c-6.432,4.62-17.403,20.998-26.984,37.782c-4.126,7.227-10.082,17.452-16.005,27.549c0.484,1.558,0.978,3.125,1.479,4.675
		c9.803,30.182,18.62,60.147,47.848,62.541c18.922,1.542,43.069-8.762,39.626-27.692c-1.042-5.733,4.166-9.55,9.39-9.55
		c5.207,0,6.257,6.68,6.257,6.68C475.328,384.667,461.78,426.678,419.013,432.411z" style="fill: rgb(75, 75, 75);"></path>
</g>
</svg>
