<?xml version="1.0" encoding="utf-8"?>
<!-- Generator: Adobe Illustrator 15.1.0, SVG Export Plug-In . SVG Version: 6.00 Build 0)  -->
<!DOCTYPE svg PUBLIC "-//W3C//DTD SVG 1.1//EN" "http://www.w3.org/Graphics/SVG/1.1/DTD/svg11.dtd">
<svg version="1.1" id="レイヤー_1" xmlns="http://www.w3.org/2000/svg" xmlns:xlink="http://www.w3.org/1999/xlink" x="0px"
	 y="0px" width="595.279px" height="595.281px" viewBox="0 0 595.279 595.281" enable-background="new 0 0 595.279 595.281"
	 xml:space="preserve">
<g>
	<path fill-rule="evenodd" clip-rule="evenodd" d="M356.99,521.007c0,4.822-3.946,8.769-8.768,8.769H246.058
		c-4.822,0-8.767-3.946-8.767-8.769v-5.423c0-4.822,3.945-8.768,8.767-8.768h102.164c4.821,0,8.768,3.945,8.768,8.768V521.007z"/>
	<path fill-rule="evenodd" clip-rule="evenodd" d="M297.14,579.973c-5.846,0-11.284-2.907-14.548-7.775
		c-2.712-4.045-7.264-6.475-12.137-6.475h-20.787c-4.493,0-8.147-3.655-8.147-8.146v-5.039c0-4.493,3.654-8.148,8.147-8.148h94.942
		c4.492,0,8.147,3.655,8.147,8.148v5.039c0,4.491-3.655,8.146-8.147,8.146h-20.788c-4.872,0-9.423,2.429-12.137,6.475
		C308.423,577.066,302.984,579.973,297.14,579.973z"/>
	<path fill-rule="evenodd" clip-rule="evenodd" d="M297.14,171.496c-74.47,0-135.056,60.586-135.056,135.059
		c0,24.109,6.431,47.772,18.597,68.429c8.035,13.645,18.335,25.698,30.616,35.829c11.917,9.826,19.357,23.701,20.949,39.066
		l3.021,29.143c0.771,7.447,2.662,13.104,10.149,13.104h103.445c7.486,0,9.379-5.657,10.15-13.104l3.021-29.145
		c1.591-15.363,9.031-29.236,20.948-39.064c12.276-10.125,22.578-22.179,30.617-35.828c12.166-20.659,18.597-44.322,18.597-68.43
		C432.196,232.082,371.61,171.496,297.14,171.496z M407.458,298.2c-2.412,1.963-5.41,3.011-8.471,3.011
		c-0.824,0-1.654-0.076-2.479-0.23l-0.005-0.001c-6.436-1.21-11.058-6.889-10.938-13.438c0.446-24.162-14.249-46.623-36.568-55.89
		c-3.424-1.422-6.106-4.196-7.411-7.666c-1.308-3.469-1.119-7.325,0.518-10.651c2.322-4.721,7.076-7.498,12.047-7.498
		c1.717,0,3.459,0.331,5.137,1.028c32.422,13.457,53.769,46.078,53.117,81.174C412.33,291.988,410.522,295.705,407.458,298.2z"/>
</g>
<path fill-rule="evenodd" clip-rule="evenodd" d="M313.097,120.001c0,5.728-4.686,10.413-10.413,10.413h-10.887
	c-5.727,0-10.413-4.686-10.413-10.413V25.096c0-5.728,4.686-10.413,10.413-10.413h10.887c5.728,0,10.413,4.686,10.413,10.413
	V120.001z"/>
<path fill-rule="evenodd" clip-rule="evenodd" d="M415.711,159.541c-4.009,4.091-10.635,4.158-14.726,0.15l-7.776-7.62
	c-4.091-4.008-4.158-10.635-0.149-14.726l66.421-67.788c4.009-4.091,10.635-4.158,14.726-0.15l7.776,7.62
	c4.091,4.008,4.158,10.635,0.149,14.726L415.711,159.541z"/>
<path fill-rule="evenodd" clip-rule="evenodd" d="M178.569,159.541c4.008,4.091,10.635,4.158,14.725,0.149l7.776-7.619
	c4.09-4.008,4.158-10.635,0.15-14.726l-66.422-67.788c-4.008-4.091-10.635-4.158-14.725-0.15l-7.776,7.62
	c-4.09,4.008-4.158,10.635-0.15,14.726L178.569,159.541z"/>
</svg>
